<?xml version="1.0" encoding="UTF-8" standalone="no"?>
<!-- Created with Inkscape (http://www.inkscape.org/) -->

<svg version="1.1" id="svg2" xml:space="preserve" width="2133.3333" height="2133.3333" viewBox="0 0 2133.3333 2133.3333"
  sodipodi:docname="logo vektoros.ai" xmlns:inkscape="http://www.inkscape.org/namespaces/inkscape"
  xmlns:sodipodi="http://sodipodi.sourceforge.net/DTD/sodipodi-0.dtd" xmlns="http://www.w3.org/2000/svg"
  xmlns:svg="http://www.w3.org/2000/svg">
  <defs id="defs6">
    <clipPath clipPathUnits="userSpaceOnUse" id="clipPath16">
      <path d="M 0,0 H 1600 V 1600 H 0 Z" id="path14" />
    </clipPath>
    <clipPath clipPathUnits="userSpaceOnUse" id="clipPath24">
      <path d="M 0.744629,1599.11 H 1601.11 V -1.09277 H 0.744629 Z" id="path22" />
    </clipPath>
  </defs>
  <sodipodi:namedview id="namedview4" pagecolor="#ffffff" bordercolor="#666666" borderopacity="1.0"
    inkscape:pageshadow="2" inkscape:pageopacity="0.0" inkscape:pagecheckerboard="0" />
  <g id="g8" inkscape:groupmode="layer" inkscape:label="logo vektoros"
    transform="matrix(1.3333333,0,0,-1.3333333,0,2133.3333)">
    <g id="g10">
      <g id="g12" clip-path="url(#clipPath16)">
        <g id="g18">
          <g id="g20" />
          <g id="g212">
            <g clip-path="url(#clipPath24)" id="g210">
              <g transform="translate(481.1416,317.9141)" id="g40">
                <path
                  d="m 0,0 c 5.317,-4.946 12.098,-5.999 17.985,-8.801 12.442,-5.918 25.599,-10.155 38.253,-15.636 5.643,-2.444 11.092,-5.739 17.413,-6.731 2.981,-0.468 4.683,-5.975 3.052,-9.891 -1.486,-3.568 -4.491,-2.007 -6.807,-1.12 -14.861,5.694 -29.665,11.533 -44.49,17.316 -9.626,3.756 -19.606,6.808 -28.775,11.461 -7.694,3.903 -13.994,4.99 -20.86,-1.207 -3.233,-2.919 -3.764,-3.526 0.375,-5.462 8.362,-3.91 16.999,-7.283 25.609,-10.512 15.043,-5.642 29.892,-11.759 44.815,-17.678 10.516,-4.171 21.106,-8.257 31.389,-12.936 5.458,-2.484 4.932,-0.098 4.927,3.543 -0.04,29.474 -0.026,58.951 -0.051,88.425 -0.002,1.32 -0.056,2.686 -0.401,3.944 -0.356,1.296 -0.916,2.417 -2.846,1.554 C 75.994,34.661 71.982,33.932 68.443,32.456 55.439,27.036 42.367,21.754 29.616,15.703 19.675,10.986 10.332,5.203 0,0 m 582.817,-12.854 h 0.022 c 0,-14.988 -0.02,-29.976 0.015,-44.964 0.008,-3.3 -0.293,-6.034 4.934,-3.557 9.892,4.687 20.212,8.483 30.415,12.494 15.859,6.235 31.43,13.152 47.62,18.622 8.151,2.754 15.531,7.771 24.084,9.867 1.292,0.317 2.653,1.548 2.813,3.221 0.175,1.836 -1.217,2.19 -2.614,2.265 -1.614,0.086 -1.974,1.62 -2.976,2.329 -2.729,1.931 -5.328,4.046 -9.29,2.292 -7.124,-3.153 -14.444,-5.866 -21.703,-8.708 -11.493,-4.5 -23.017,-8.927 -34.506,-13.436 -9.924,-3.895 -19.822,-7.853 -29.721,-11.811 -0.988,-0.396 -1.851,-0.694 -2.635,0.32 -2.347,3.038 0.144,11.507 3.815,12.781 10.531,3.657 20.732,8.13 31.021,12.392 12.882,5.337 25.811,10.563 38.746,15.768 1.284,0.517 2.687,0.786 2.747,2.417 0.059,1.63 -1.607,1.31 -2.497,1.9 -10.269,6.809 -21.405,11.881 -32.531,17.113 -13.719,6.452 -27.809,11.856 -41.95,17.192 -5.162,1.947 -5.783,1.447 -5.797,-4.031 -0.037,-14.821 -0.012,-29.643 -0.012,-44.466 m 112.006,99.032 h -0.016 c 0,26.828 -0.032,53.656 0.033,80.483 0.01,4.081 -1.313,6.717 -5.292,8.539 -14.854,6.803 -29.669,13.67 -44.98,19.411 -7.346,2.754 -14.485,6.332 -22.05,8.16 -8.278,2 -15.793,5.987 -24.25,7.604 -10.865,2.078 -21.353,6.05 -32.136,8.653 -10.032,2.422 -20.349,4.021 -30.233,6.694 -14.2,3.84 -28.75,5.655 -43.037,8.813 -10.29,2.276 -21.195,2.48 -31.77,4.36 -13.141,2.335 -26.603,1.758 -39.843,3.926 -7.783,1.275 -15.853,1.187 -23.785,1.825 -16.152,1.296 -32.409,0.914 -48.644,1.997 -14.084,0.94 -28.355,0.081 -42.616,-0.959 -22.921,-1.672 -45.95,-1.333 -68.9,-4.167 -12.513,-1.546 -25.159,-1.911 -37.7,-4.082 -8.721,-1.511 -17.556,-2.977 -26.328,-3.89 -9.324,-0.971 -18.429,-2.634 -27.556,-4.474 -8.4,-1.692 -16.781,-3.436 -25.23,-4.917 -9.448,-1.655 -18.604,-4.903 -27.987,-7.017 -11.063,-2.493 -21.786,-6.1 -32.582,-9.441 -10.321,-3.194 -20.483,-6.92 -30.662,-10.554 -10.915,-3.897 -21.582,-8.43 -32.342,-12.723 -5.601,-2.234 -10.615,-5.535 -16.295,-7.613 -4.145,-1.518 -9.15,-2.579 -9.096,-9.387 0.038,-4.774 0.245,-9.571 0.239,-14.357 -0.054,-44.158 -0.012,-88.316 -0.06,-132.474 -0.005,-4.976 0.416,-9.949 -0.57,-14.94 -0.826,-4.179 0.956,-5.593 5.133,-4.405 1.545,0.439 2.922,1.504 4.336,2.351 8.209,4.91 16.276,10.078 24.641,14.705 10.272,5.68 20.879,10.672 31.67,15.374 14.838,6.467 29.722,12.656 45.166,17.541 9.505,3.006 19.19,5.548 28.579,8.647 11.044,3.647 22.338,6.182 33.519,8.814 11.297,2.66 22.754,5.107 34.307,6.977 9.617,1.558 19.317,3.551 28.943,5.034 11.664,1.796 23.516,2.697 35.283,4.156 18.027,2.235 36.291,3.226 54.382,3.728 28.037,0.778 56.133,1.45 84.28,-0.939 19.464,-1.652 39.047,-2.525 58.48,-4.715 7.241,-0.816 14.675,-0.88 21.685,-2.52 9.147,-2.139 18.485,-2.92 27.62,-5.1 9.235,-2.202 18.74,-3.258 28.042,-5.355 5.925,-1.335 11.668,-3.906 17.558,-4.493 10.165,-1.011 19.39,-5.03 29.053,-7.534 12.635,-3.274 24.792,-8.234 37.13,-12.538 11.643,-4.062 23.011,-8.708 34.116,-13.918 11.984,-5.624 23.953,-11.367 35.281,-18.309 5.456,-3.342 11.32,-6.092 16.446,-9.863 2.264,-1.665 4.192,-2.817 6.603,-1.921 2.446,0.91 1.384,3.49 1.389,5.328 0.067,26.495 0.046,52.99 0.046,79.485 M 31.63,-56.503 c 0.355,0.607 1.13,1.251 -0.11,1.747 -10.341,4.138 -20.224,9.499 -31.289,11.703 -3.097,3.74 -7.877,4.324 -11.945,6.118 -8.71,3.843 -17.664,7.128 -26.475,10.747 -2.517,1.033 -4.197,2.493 -4.019,5.903 0.361,6.969 0.089,13.971 0.058,20.959 -0.092,20.627 -0.193,41.254 -0.29,61.881 l -0.071,12.841 c 0.119,0.99 0.309,1.977 0.347,2.969 0.285,7.395 0.007,7.698 -7.183,7.714 -8.662,0.019 -17.325,0.005 -25.987,0.007 -16.658,0.003 -33.317,0.021 -49.976,-0.011 -1.923,-0.004 -4.203,0.637 -5.454,-1.501 -1.246,-2.131 0.922,-3.216 1.75,-4.728 5.314,-9.706 11.939,-18.656 18.353,-27.522 8.895,-12.297 16.005,-25.81 25.878,-37.411 2.049,-2.408 2.741,-5.706 0.705,-8.382 -5.035,-6.615 -8.814,-14.022 -13.513,-20.816 -10.631,-15.369 -21.313,-30.698 -31.013,-46.68 -0.88,-1.451 -3.26,-2.513 -2.208,-4.64 1.145,-2.319 3.579,-1.251 5.422,-1.253 58.471,-0.061 116.943,-0.058 175.414,-0.059 1.499,0 2.999,0.019 4.497,0.091 1.038,0.05 2.032,0.299 2.052,1.627 0.015,0.937 -0.553,1.711 -1.4,1.83 -8.183,1.157 -14.724,7.933 -23.543,6.866 M 709.028,62.434 c -0.089,-1.994 -0.254,-3.986 -0.256,-5.979 -0.02,-24.491 -0.19,-48.985 0.114,-73.473 0.067,-5.407 -1.938,-8.022 -6.624,-10.076 -8.129,-3.562 -16.887,-5.508 -24.705,-9.796 -3.936,-2.159 -8.712,-2.688 -11.953,-6.181 -11.217,-2.365 -21.282,-7.807 -31.843,-11.925 -1.282,-0.315 -2.552,-0.683 -3.845,-0.936 -6.668,-1.302 -11.841,-6.557 -18.799,-7.09 -1.285,-0.099 -2.921,0.138 -2.979,-1.799 -0.07,-2.303 1.795,-1.947 3.224,-2.05 0.995,-0.071 1.998,-0.045 2.998,-0.046 58.978,-0.009 117.955,-0.019 176.933,-0.006 1.772,0 3.904,-0.568 5.027,1.339 1.27,2.154 -0.558,3.854 -1.561,5.399 -3.239,4.993 -6.798,9.777 -10.119,14.718 -10.592,15.756 -20.543,31.939 -31.654,47.348 -5.516,7.652 -5.267,7.623 0.431,15.93 6.318,9.209 12.625,18.428 18.923,27.65 7.728,11.317 14.704,23.15 22.749,34.267 1.223,1.691 2.553,3.354 1.409,5.401 -0.992,1.775 -3.001,1.809 -4.882,1.865 -4.999,0.149 -10.021,-1.081 -14.897,-0.735 -20.465,1.451 -40.934,0.308 -61.394,0.666 -5.773,0.101 -6.846,-1.178 -6.585,-6.784 0.078,-1.662 0.18,-3.323 0.271,-4.983 -0.666,-4.243 -0.714,-8.484 0.017,-12.724 m -44.033,138.74 c 8.633,-3.861 17.276,-7.703 25.896,-11.594 2.575,-1.162 4.972,-2.903 7.654,-3.613 8.743,-2.317 10.735,-7.738 10.427,-16.476 -0.745,-21.136 -0.118,-42.316 -0.327,-63.475 -0.044,-4.402 0.916,-5.868 5.655,-5.838 35.157,0.221 70.316,0.123 105.474,0.125 h 4.821 c 1.065,-1.869 -0.389,-2.705 -1.054,-3.688 -18.183,-26.879 -36.298,-53.806 -54.719,-80.523 -3.108,-4.509 -3.206,-7.58 -0.056,-12.216 17.936,-26.403 35.487,-53.07 53.134,-79.67 0.975,-1.47 2.407,-2.761 2.489,-4.813 -2.113,-0.9 -4.279,-0.467 -6.372,-0.467 -82.149,-0.03 -164.297,0.019 -246.444,-0.137 -4.842,-0.009 -5.64,1.42 -5.415,5.921 1.364,27.283 2.404,54.582 3.547,81.876 0.384,9.152 0.667,18.31 1.19,27.454 0.17,2.981 -0.768,4.435 -3.692,5.403 -28.425,9.419 -57.291,17.123 -86.672,22.934 C 423.548,73.648 366.011,77.316 308.063,74.653 278.791,73.309 249.677,70.172 220.678,65.746 181.838,59.818 143.63,51.143 105.719,40.978 94.804,38.051 94.763,38.215 94.761,26.834 94.754,-7.491 94.678,-41.817 94.829,-76.142 c 0.018,-3.945 -1.042,-5.043 -4.976,-5.037 -81.482,0.11 -162.963,0.085 -244.445,0.121 -1.236,0 -2.922,-0.738 -3.635,0.697 -0.7,1.408 0.877,2.384 1.564,3.42 18.116,27.298 36.183,54.632 54.554,81.759 2.747,4.057 2.362,6.67 -0.242,10.465 -18.54,27.028 -36.851,54.212 -55.225,81.354 -0.624,0.922 -1.632,1.693 -1.409,3.125 1.483,0.986 3.162,0.494 4.742,0.495 35.324,0.032 70.65,0.12 105.974,-0.057 4.761,-0.024 6.151,1.255 6.096,6.101 -0.262,23.325 -0.133,46.654 -0.108,69.982 10e-4,1.647 0.275,3.293 0.422,4.938 6.052,2.952 12.106,5.905 18.159,8.858 18.38,7.887 37.048,15.05 55.728,22.182 9.327,3.05 18.924,5.323 27.822,9.617 6.197,0.011 12.391,2.302 17.657,4.206 7.791,2.817 16.13,3.596 23.612,7.115 1.151,0.046 2.357,-0.117 3.443,0.17 11.845,3.139 23.848,5.565 35.815,8.174 4.275,0.932 8.992,0.542 12.733,3.499 10.754,0.34 21.169,3.05 31.742,4.646 2.377,0.36 5.002,-0.016 7.16,1.52 0.984,-0.106 1.99,-0.402 2.949,-0.291 12.52,1.448 25.034,2.955 37.551,4.442 1.186,0.141 2.28,0.454 3.051,1.454 0.88,-0.356 1.979,-1.246 2.604,-0.987 7.035,2.907 14.658,1.819 21.884,2.641 17.413,1.984 35.064,2.156 52.63,2.47 19.09,0.343 38.205,0.733 57.274,-0.943 2.312,-0.204 4.844,-0.457 5.28,2.907 0.586,-2.326 1.992,-3.464 4.477,-3.438 2.439,0.025 4.882,-0.202 7.323,-0.319 13.858,-2.104 27.827,-1.996 41.785,-2.115 2.129,-1.606 4.695,-1.459 7.142,-1.748 4.939,-0.583 9.896,-1.03 14.826,-1.685 15.607,-2.077 31.203,-4.225 46.804,-6.345 5.054,-0.821 10.265,-1.121 15.133,-2.571 10.689,-3.184 10.497,-3.321 17.445,5.031 10.716,12.881 20.122,26.733 28.542,41.112 10.447,17.84 19.957,36.27 26.468,56.032 2.258,6.856 5.166,13.558 6.29,20.71 1.105,7.025 1.938,14.117 2.977,21.141 1.739,11.751 -0.28,23.154 -2.412,34.427 -1.72,9.092 -6.732,11.529 -14.818,9.291 -2.002,-0.555 -3.818,-1.772 -5.732,-2.655 -6.181,-2.854 -11.66,-1.241 -13.31,4.295 -0.696,2.334 -1.793,4.729 -2.002,7.009 -1.061,11.573 -4.787,22.538 -7.076,33.82 -3.216,15.854 -6.141,31.77 -9.008,47.693 -2.042,11.343 1.663,20.441 11.405,26.84 10.378,6.815 21.917,9.552 34.211,9.605 5.899,0.027 7.739,-1.731 8.03,-7.815 0.85,-17.767 -1.286,-35.507 -0.314,-53.298 0.411,-7.512 6.969,-13.382 13.261,-10.189 5.859,2.973 11.811,6.152 16.834,10.313 13.361,11.071 24.895,23.813 33.728,38.956 4.822,8.266 9.719,16.649 13.665,25.185 3.292,7.12 5.713,15.086 8.342,22.719 5.11,14.844 10.038,29.736 14.575,44.758 2.624,8.689 4.566,17.613 7.684,26.111 3.109,8.472 4.698,17.306 5.942,26.011 1.532,10.725 5.118,20.828 7.345,31.311 2.008,9.451 1.285,17.914 -4.253,25.922 -3.343,4.832 -8.269,7.36 -13.283,9.893 -6.302,3.184 -12.36,6.911 -18.833,9.678 -14.047,6.005 -28.012,12.18 -42.473,17.251 -15.823,5.549 -31.634,11.192 -47.386,16.958 -7.997,2.928 -13.635,7.187 -18.153,14.038 -7.928,12.022 -16.09,23.947 -26.027,34.41 -9.82,10.34 -20.626,19.639 -33.014,26.883 -13.574,7.936 -27.482,14.975 -42.768,19.36 -7.331,2.104 -15.056,3.687 -21.734,7.84 -0.406,2.106 -0.714,4.17 -1.691,6.192 -11.711,24.229 -29.121,43.614 -50.59,59.498 -39.791,29.437 -85.522,44.513 -133.227,54.702 -1.949,0.416 -4.81,1.597 -5.932,-0.57 -0.954,-1.84 1.084,-3.946 2.191,-5.772 0.171,-0.28 0.447,-0.495 0.645,-0.762 6.449,-8.684 12.928,-17.346 19.309,-26.081 1.281,-1.754 2.989,-3.456 2.802,-6.048 -2.717,-0.235 -5.112,1.611 -7.54,0.005 -4.007,-2.651 -8.575,-2.63 -13.031,-2.163 -8.765,0.919 -17.512,2.059 -26.23,3.349 -16.11,2.385 -32.239,4.7 -48.267,7.559 -5.77,1.029 -11.984,0.338 -17.274,3.693 3.206,1.373 6.418,2.733 9.618,4.12 34.714,15.045 68.01,32.698 99.267,54.084 16.774,11.477 32.621,24.198 48.694,36.608 3.659,2.825 6.425,3.101 9.995,-0.151 4.914,-4.475 10.264,-8.473 15.462,-12.632 43.641,-34.913 91.576,-62.622 142.754,-84.831 45.696,-19.831 92.964,-34.838 141.618,-45.48 29.27,-6.402 58.719,-11.771 88.612,-14.275 16.424,-1.375 32.878,-2.417 49.325,-3.511 3.674,-0.244 6.285,-1.054 6.961,-5.415 4.282,-27.65 7.548,-55.426 9.262,-83.338 2.383,-38.775 2.185,-77.55 -0.88,-116.329 -2.812,-35.555 -7.784,-70.785 -15.388,-105.585 -9.019,-41.267 -21.342,-81.583 -36.88,-120.91 -14.374,-36.378 -31.385,-71.468 -50.979,-105.288 -24.587,-42.436 -53.324,-81.956 -84.734,-119.585 -8.635,-10.345 -16.743,-21.127 -25.143,-31.669 -2.025,-2.541 -3.115,-3.933 1.502,-5.069 10.47,-2.575 20.727,-6.006 31.125,-8.889 10.067,-2.79 19.634,-7.148 29.876,-9.359 8.791,-3.868 17.813,-7.132 26.89,-10.25"
                  style="fill:#881f1c;fill-opacity:1;fill-rule:evenodd;stroke:none" id="path38" />
              </g>
              <g transform="translate(649.1807,1306.8418)" id="g44">
                <path
                  d="m 0,0 c 5.289,-3.354 11.503,-2.664 17.272,-3.692 16.029,-2.86 32.158,-5.175 48.268,-7.56 8.718,-1.29 17.465,-2.43 26.23,-3.349 4.456,-0.466 9.024,-0.488 13.031,2.163 2.428,1.606 4.823,-0.24 7.54,-0.004 0.187,2.591 -1.521,4.294 -2.802,6.047 -6.381,8.735 -12.86,17.397 -19.31,26.082 -0.197,0.266 -0.473,0.481 -0.644,0.761 -1.107,1.826 -3.145,3.932 -2.191,5.773 1.122,2.167 3.983,0.985 5.932,0.569 47.705,-10.188 93.436,-25.265 133.227,-54.702 21.468,-15.884 38.879,-35.269 50.59,-59.498 0.977,-2.022 1.285,-4.086 1.689,-6.193 -1.601,-1.247 -2.171,0.312 -3.044,1.098 -8.776,7.909 -17.332,16.081 -27.21,22.67 -30.815,20.558 -64.7,33.171 -101.147,39.21 -7.011,1.162 -9.103,0.204 -12.354,-6.033 -3.529,-6.77 -6.699,-13.724 -10.803,-20.197 -1.838,-2.901 -3.409,-3.662 -6.794,-1.875 -11.866,6.261 -24.007,11.984 -36.511,16.898 -22.965,9.026 -46.412,16.175 -70.798,20.501 -12.43,2.204 -24.914,4.289 -37.399,4.942 -29.744,1.555 -59.338,-0.006 -88.671,-6.337 -30.171,-6.511 -58.751,-16.921 -85.869,-31.518 -1.327,-0.715 -3.199,-1.125 -3.45,-3.423 8.227,-3.578 17.088,-4.942 25.654,-7.312 7.958,-2.201 15.924,-4.371 23.847,-6.693 1.111,-0.325 2.842,-0.844 2.597,-2.484 -0.187,-1.245 -1.633,-1.412 -2.786,-1.728 -6.199,-1.69 -12.348,-3.572 -18.571,-5.171 -35.794,-9.193 -70.048,-22.107 -101.493,-41.843 -28.789,-18.071 -52.461,-41.207 -70.13,-70.393 -17.369,-28.691 -26.686,-60.127 -31.429,-92.994 -3.211,-22.241 -4.068,-44.705 -3.86,-67.187 0.027,-2.933 -0.07,-5.916 1.754,-8.973 1.194,2.071 2.468,3.812 3.273,5.749 18.855,45.342 45.378,85.589 80.241,120.208 33.975,33.738 72.825,59.682 119.168,73.408 8.097,2.397 16.213,4.697 24.633,5.684 1.293,0.151 2.956,0.709 3.58,-0.799 0.67,-1.621 -0.658,-2.742 -1.939,-3.595 -0.549,-0.365 -1.174,-0.62 -1.776,-0.901 -14.689,-6.846 -26.875,-17.089 -38.277,-28.354 -38.611,-38.142 -65.495,-84.242 -89.47,-132.276 -8.582,-17.196 -15.873,-34.964 -22.467,-53.021 -0.513,-1.404 -0.324,-3.829 -3.13,-3.866 -2.305,30.594 1.164,60.265 11.801,89.192 -2.635,0.005 -3.517,-1.55 -4.556,-2.745 -10.508,-12.068 -19.809,-25.014 -27.889,-38.827 -20.212,-34.552 -30.676,-72.177 -33.388,-111.808 -1.828,-26.725 -0.684,-53.564 4.04,-80.037 3.687,-20.66 8.765,-41.011 15.343,-60.984 15.161,-46.027 36.672,-88.797 64.984,-128.154 16.783,-23.33 35.532,-44.849 57.492,-63.469 1.034,-0.876 2.117,-2.938 3.635,-1.68 1.454,1.202 -0.291,2.696 -0.938,3.872 -6.388,11.596 -12.694,23.229 -18.24,35.265 -19.756,42.876 -30.614,87.741 -30.492,135.104 0.07,26.992 2.502,53.89 3.093,80.862 0.077,3.545 0.904,7.072 1.465,11.198 3.067,-2.255 4.126,-4.81 4.841,-7.509 1.392,-5.255 2.671,-10.539 3.994,-15.812 9.281,-37 25.38,-71.024 45.681,-103.098 28.722,-45.377 63.944,-85.89 96.744,-128.212 -8.898,-4.294 -18.495,-6.567 -27.823,-9.618 -0.063,1.79 -1.193,3.011 -2.229,4.314 -11.244,14.163 -22.544,28.281 -33.679,42.529 -10.42,13.335 -20.801,26.705 -30.925,40.264 -6.299,8.436 -12.078,17.258 -18.105,25.896 -4.293,6.151 -7.691,12.928 -13.482,19.682 2.147,-10.691 3.201,-20.183 5.621,-29.552 3.666,-14.185 8.095,-28.17 13.618,-41.594 7.591,-18.453 17.306,-36.01 27.055,-53.475 3,-5.374 3.391,-11.229 2.267,-17.416 -0.893,-4.909 -4.765,-8.183 -5.868,-12.829 -6.053,-2.953 -12.107,-5.906 -18.159,-8.858 -5.957,1.992 -12.615,1.232 -18.206,4.675 -7.324,4.51 -13.525,10.446 -19.658,16.317 -10.081,9.651 -19.836,19.657 -28.708,30.486 -6.491,7.924 -12.907,15.894 -18.983,24.143 -9.601,13.036 -18.29,26.665 -26.585,40.553 -13.186,22.074 -24.221,45.212 -33.74,69.067 -7.509,18.82 -13.855,38.059 -18.915,57.679 -11.494,44.572 -15.723,89.75 -10.772,135.652 1.215,11.27 3.045,22.423 5.807,33.409 1,3.977 -0.405,5.455 -4.337,5.788 -8.799,0.743 -15.009,5.652 -19.187,13.131 -3.365,6.026 -4.901,12.501 -5.014,19.55 -0.485,30.207 0.687,60.289 6.508,90.004 5.032,25.687 12.621,50.497 24.85,73.874 8.557,16.357 18.708,31.432 30.536,45.545 12.261,14.631 26.444,27.113 41.792,38.27 15.159,11.018 31.45,20.137 48.445,28.136 6.702,3.155 13.591,5.847 20.356,8.796 3.868,1.687 4.105,3.597 3.173,6.816 -1.597,5.503 -1.818,10.821 -0.266,16.596 1.933,7.191 6.44,11.79 12.327,15.292 12.164,7.235 24.91,13.358 37.983,18.784 1.086,0.451 2.233,0.746 2.546,2.101 2.078,-0.231 3.896,0.735 5.719,1.418 10.208,3.824 20.543,7.257 30.988,10.3 10.062,1.797 20.144,3.596 30.226,5.397 11.814,0.395 23.628,1.126 35.44,1.092 12.48,-0.035 24.959,-0.809 37.439,-1.238 2.835,-0.098 5.624,-0.807 8.398,-0.979 C -21.122,2.287 -10.719,-0.594 0,0"
                  style="fill:#f3be1b;fill-opacity:1;fill-rule:evenodd;stroke:none" id="path42" />
              </g>
              <g transform="translate(505.9609,1305.5215)" id="g48">
                <path
                  d="m 0,0 c -10.464,-3.048 -20.799,-6.48 -31.007,-10.305 -1.823,-0.682 -3.641,-1.649 -5.72,-1.418 -3.358,19.698 6.772,30.665 22.891,36.117 31.451,10.635 63.185,20.443 94.181,32.404 51.95,20.048 101.944,43.92 147.931,75.626 18.785,12.951 36.35,27.528 54.7,41.056 14.92,11.001 28.971,10.531 43.188,-1.49 C 391.159,117.031 464.365,76.508 544.095,47.251 588.209,31.063 633.411,18.924 679.426,9.709 717.694,2.046 756.385,-2.27 795.365,-4.134 c 7.463,-0.356 14.977,-0.508 22.314,-2.284 14.336,-3.472 22.16,-13.069 24.399,-27.122 10.722,-67.316 15.215,-135.038 12.094,-203.173 -1.425,-31.115 -4.41,-62.095 -8.924,-92.942 -4.919,-33.613 -11.633,-66.834 -20.276,-99.669 -20.454,-77.696 -50.568,-151.447 -90.396,-221.241 -26.207,-45.925 -56.122,-89.279 -89.576,-130.208 -1.568,-1.919 -3.215,-3.776 -4.824,-5.661 -9.077,3.119 -18.099,6.382 -26.89,10.25 1.038,1.484 1.973,3.055 3.131,4.438 33.28,39.766 63.152,81.924 89.362,126.683 26.1,44.573 48.168,91.059 66.043,139.5 19.784,53.613 34.442,108.593 43.61,165.052 6.255,38.529 10.158,77.265 11.447,116.246 2.054,62.119 -2.433,123.843 -11.914,185.237 -0.639,4.132 -2.555,6.193 -6.8,6.367 -7.156,0.295 -14.301,0.849 -21.454,1.231 -33.292,1.777 -66.404,5.252 -99.185,11.354 -43.19,8.039 -85.822,18.353 -127.535,32.302 -46.595,15.581 -91.677,34.625 -134.775,58.269 -41.121,22.561 -79.739,48.776 -115.566,79.08 -5.799,4.905 -5.907,4.839 -11.807,0.337 -12.441,-9.494 -24.755,-19.156 -37.294,-28.516 C 209.658,83.402 153.355,55.502 94.457,32.422 69.381,22.595 43.727,14.515 18.051,6.477 11.757,5.09 5.905,2.472 0,0"
                  style="fill:#1c1e1e;fill-opacity:1;fill-rule:evenodd;stroke:none" id="path46" />
              </g>
              <g transform="translate(710.9961,354.0479)" id="g52">
                <path
                  d="m 0,0 c 24.162,0.007 48.325,-0.106 72.484,0.108 4.508,0.04 6.081,-1.036 5.979,-5.768 -0.305,-13.991 -0.285,-27.995 -0.031,-41.987 0.078,-4.305 -1.017,-5.658 -5.499,-5.63 -31.826,0.192 -63.655,-0.03 -95.479,0.238 -4.803,0.04 -6.332,-1.565 -6.899,-5.921 -1.118,-8.572 -2.546,-17.108 -4.023,-25.629 -0.642,-3.709 1.002,-3.521 3.484,-2.455 10.768,4.631 21.928,7.801 33.678,8.357 31.479,1.492 57.631,-8.428 75.231,-35.93 9.777,-15.279 12.014,-32.403 10.081,-49.932 -2.307,-20.921 -10.584,-39.407 -25.878,-54.274 -12.446,-12.099 -27.582,-18.856 -44.585,-21.705 -23.642,-3.965 -47.164,-3.478 -70.248,3.119 -29.133,8.326 -46.916,28.266 -55.997,56.637 -0.934,2.915 -0.241,4.099 2.976,4.44 19.201,2.033 38.397,4.133 57.56,6.491 4.308,0.529 5.662,-1.004 6.578,-4.942 3.314,-14.23 11.176,-24.485 26.317,-27.244 15.163,-2.765 29.209,5.792 34.179,21.068 4.387,13.485 4.453,27.313 -0.012,40.773 -5.267,15.874 -21.731,24.039 -38.231,19.976 -8.535,-2.102 -15.773,-6.237 -21.638,-12.61 -2.556,-2.78 -5.126,-3.656 -8.77,-3.109 -15.96,2.394 -31.942,4.648 -47.932,6.836 -2.898,0.397 -3.549,1.808 -3.109,4.414 4.807,28.533 9.594,57.069 14.355,85.609 1.889,11.319 3.917,22.622 5.439,33.991 0.545,4.066 2.069,5.176 6.006,5.151 C -49.324,-0.083 -24.661,-0.006 0,0"
                  style="fill:#891f1c;fill-opacity:1;fill-rule:evenodd;stroke:none" id="path50" />
              </g>
              <g transform="translate(925.2354,354.0635)" id="g56">
                <path
                  d="m 0,0 c 30.321,0.004 60.643,-0.059 90.963,0.074 4.276,0.019 6.158,-0.829 5.995,-5.716 -0.388,-11.649 -0.212,-23.32 -0.077,-34.981 0.033,-2.894 -0.779,-4.915 -2.963,-6.912 -37.066,-33.898 -59.871,-76.286 -73.42,-124.094 -5.687,-20.066 -8.906,-40.604 -10.473,-61.372 -0.357,-4.739 -1.88,-6.048 -6.592,-5.973 -18.155,0.291 -36.319,0.277 -54.475,0.021 -4.61,-0.066 -5.535,1.238 -4.949,5.65 7.57,57.014 25.589,109.915 60.873,156.107 4.339,5.68 8.681,11.36 12.982,17.07 0.754,1.002 2.305,1.987 1.504,3.358 -0.747,1.28 -2.433,0.548 -3.676,0.549 -35.652,0.04 -71.305,0.113 -106.957,-0.067 -4.541,-0.024 -5.922,1.122 -5.827,5.783 0.309,15.154 0.231,30.32 0.04,45.479 -0.049,3.913 1.077,5.129 5.089,5.108 C -61.31,-0.076 -30.654,-0.004 0,0"
                  style="fill:#891f1c;fill-opacity:1;fill-rule:evenodd;stroke:none" id="path54" />
              </g>
              <g transform="translate(990.1348,890.9414)" id="g60">
                <path
                  d="m 0,0 c 0.561,-0.154 0.913,-0.383 1.151,-0.296 2.189,0.793 4.414,1.517 6.522,2.492 17.699,8.194 36.406,11.377 55.77,11.266 8.213,-0.047 16.26,-1.158 23.88,-4.419 8.36,-3.577 8.345,-3.605 12.576,3.99 0.084,0.152 0.469,0.135 0.776,0.211 9.936,-22.797 6.842,-45.761 0.492,-68.926 3.972,0.38 5.827,2.727 7.795,4.99 10.657,12.251 19.463,25.752 26.658,40.263 7.317,14.756 14.172,29.698 15.832,46.442 0.955,9.637 -1.008,11.986 -10.785,11.729 -0.666,-0.017 -1.335,-0.009 -1.997,-0.07 C 114.593,45.468 90.859,41.447 67.75,34.175 45.799,27.267 24.41,19.089 5.219,6.051 2.987,4.535 0.404,3.189 0,0 m 17.377,-207.251 c -0.365,-0.546 -0.731,-1.091 -1.098,-1.637 -2.933,-0.3 -5.838,-0.203 -8.78,0.417 -23.492,4.958 -42.544,17.543 -58.812,34.642 -13.39,14.073 -22.643,30.713 -28.968,49.028 -0.511,1.479 -0.688,3.892 -2.579,3.693 -1.66,-0.174 -1.912,-2.505 -2.226,-4.116 -0.22,-1.13 -0.155,-2.321 -0.17,-3.486 -0.098,-7.676 0.629,-15.261 2.132,-22.804 9.498,-47.688 48.035,-85.577 95.698,-94.42 8.724,-1.618 15.095,1.143 20.879,7.364 17.615,18.944 25.207,41.806 26.774,67.102 0.132,2.14 0.16,4.356 -2.371,6.317 -10.1,-19.38 -26.533,-30.599 -48.968,-36.255 3.582,-2.466 6.035,-4.156 8.489,-5.845 M -2.8,-52.016 c -0.558,-4.128 -1.007,-7.422 -1.449,-10.715 -1.237,-9.232 -2.415,-18.473 -3.767,-27.688 -0.215,-1.47 0.073,-3.974 -2.121,-3.941 -1.783,0.027 -2.004,2.381 -2.543,3.847 -2.806,7.644 -5.475,15.338 -8.242,22.996 -2.057,5.697 -5.119,10.846 -9.199,15.294 -3.374,3.68 -6.516,3.435 -9.623,-0.411 -2.443,-3.024 -4.069,-6.502 -5.096,-10.212 -3.859,-13.949 -5.521,-28.008 -2.835,-42.459 3.119,-16.781 8.571,-32.469 19.708,-45.743 17.021,-20.284 39.637,-24.188 59.218,-10.258 4.568,3.25 4.691,3.625 0.132,6.961 -7.31,5.348 -12.265,11.947 -13.541,21.219 -0.637,4.63 -1.307,9.248 -1.35,13.898 -0.137,14.985 0.067,29.976 -3.562,44.687 -2.284,9.249 -7.11,16.652 -15.73,22.525 m -299.115,378.941 c -29.564,-0.047 -55.558,-6.442 -80.824,-16.448 -3.936,-1.559 -4.996,-3.926 -3.92,-7.76 3.542,-12.628 6.847,-25.326 10.603,-37.89 7.353,-24.591 19.724,-46.094 39.728,-62.688 9.792,-8.124 20.457,-14.831 32.45,-19.267 0.853,-0.315 1.855,-1.197 2.68,-0.101 0.725,0.964 0.089,1.87 -0.518,2.698 -0.982,1.343 -1.891,2.745 -2.928,4.045 -9.756,12.236 -19.411,24.523 -26.344,38.7 -4.984,10.192 -8.683,20.829 -11.655,31.74 -0.471,1.731 -1.029,3.866 0.755,5.076 1.459,0.99 2.688,-0.687 3.972,-1.32 7.601,-3.745 15.109,-7.697 23.066,-10.665 11.796,-4.399 23.397,-4.287 34.773,1.533 3.056,1.563 4.526,2.853 1.263,6 -7.542,7.273 -14.873,14.773 -22.118,22.344 -4.364,4.562 -4.095,5.178 1.799,6.848 0.638,0.18 1.291,0.353 1.948,0.413 20.098,1.801 40.199,2.792 60.327,0.379 8.256,-0.991 16.526,-1.865 24.798,-2.708 1.093,-0.112 2.572,-0.308 3.211,0.821 0.839,1.483 -0.55,2.442 -1.424,3.353 -4.043,4.218 -8.575,7.878 -13.334,11.243 -24.144,17.062 -51.471,23.314 -78.308,23.654 m -147.229,-678.074 c -32.799,42.322 -68.021,82.835 -96.743,128.212 -20.301,32.074 -36.4,66.097 -45.681,103.097 -1.323,5.274 -2.602,10.558 -3.994,15.813 -0.715,2.698 -1.774,5.254 -4.841,7.508 -0.561,-4.126 -1.388,-7.653 -1.465,-11.198 -0.591,-26.971 -3.023,-53.87 -3.093,-80.861 -0.122,-47.363 10.735,-92.229 30.492,-135.105 5.546,-12.036 11.852,-23.669 18.24,-35.264 0.647,-1.177 2.392,-2.67 0.938,-3.872 -1.519,-1.258 -2.602,0.803 -3.635,1.679 -21.96,18.62 -40.709,40.139 -57.492,63.469 -28.312,39.358 -49.823,82.127 -64.984,128.154 -6.578,19.973 -11.656,40.325 -15.343,60.985 -4.724,26.472 -5.868,53.311 -4.04,80.037 2.712,39.631 13.176,77.256 33.388,111.808 8.08,13.812 17.38,26.758 27.889,38.827 1.039,1.194 1.921,2.75 4.556,2.745 -10.637,-28.928 -14.107,-58.599 -11.801,-89.193 2.806,0.037 2.617,2.462 3.13,3.867 6.594,18.056 13.885,35.825 22.467,53.02 23.975,48.034 50.859,94.135 89.469,132.276 11.403,11.265 23.589,21.508 38.278,28.354 0.602,0.281 1.227,0.536 1.776,0.901 1.28,0.853 2.609,1.974 1.939,3.595 -0.624,1.508 -2.287,0.95 -3.58,0.799 -8.42,-0.986 -16.537,-3.286 -24.633,-5.684 -46.343,-13.725 -85.193,-39.67 -119.168,-73.408 -34.863,-34.619 -61.386,-74.865 -80.241,-120.208 -0.806,-1.936 -2.08,-3.678 -3.273,-5.749 -1.824,3.058 -1.727,6.04 -1.754,8.974 -0.208,22.481 0.649,44.945 3.86,67.186 4.743,32.867 14.06,64.303 31.429,92.994 17.669,29.186 41.341,52.323 70.13,70.393 31.445,19.736 65.698,32.65 101.493,41.844 6.223,1.598 12.371,3.48 18.571,5.171 1.153,0.315 2.599,0.482 2.786,1.727 0.245,1.641 -1.487,2.159 -2.597,2.485 -7.923,2.322 -15.89,4.492 -23.848,6.693 -8.565,2.369 -17.426,3.733 -25.653,7.311 0.251,2.298 2.123,2.708 3.45,3.423 27.118,14.597 55.698,25.007 85.868,31.519 29.333,6.331 58.928,7.891 88.672,6.337 12.485,-0.654 24.969,-2.739 37.399,-4.943 24.386,-4.326 47.833,-11.474 70.798,-20.501 12.504,-4.914 24.645,-10.636 36.511,-16.898 3.385,-1.786 4.955,-1.025 6.794,1.875 4.104,6.474 7.274,13.428 10.803,20.197 3.251,6.237 5.343,7.195 12.354,6.033 36.447,-6.039 70.332,-18.652 101.147,-39.21 9.878,-6.588 18.434,-14.76 27.21,-22.669 0.873,-0.787 1.443,-2.345 3.044,-1.098 6.68,-4.152 14.405,-5.736 21.736,-7.839 15.285,-4.386 29.194,-11.424 42.768,-19.36 12.388,-7.245 23.194,-16.543 33.014,-26.883 9.937,-10.463 18.099,-22.388 26.027,-34.41 4.517,-6.851 10.156,-11.111 18.153,-14.038 15.752,-5.766 31.563,-11.41 47.386,-16.958 14.461,-5.072 28.426,-11.247 42.473,-17.251 6.473,-2.767 12.531,-6.495 18.833,-9.678 5.014,-2.533 9.94,-5.062 13.283,-9.894 5.538,-8.008 6.261,-16.47 4.253,-25.922 -2.227,-10.482 -5.813,-20.586 -7.345,-31.31 -1.244,-8.705 -2.833,-17.539 -5.942,-26.011 -3.119,-8.498 -5.06,-17.423 -7.684,-26.111 -4.537,-15.023 -9.465,-29.914 -14.575,-44.758 -2.629,-7.634 -5.05,-15.6 -8.342,-22.72 -3.946,-8.535 -8.843,-16.919 -13.665,-25.184 -8.833,-15.143 -20.367,-27.885 -33.729,-38.956 -5.022,-4.161 -10.974,-7.34 -16.834,-10.314 -6.292,-3.192 -12.849,2.678 -13.26,10.19 -0.972,17.791 1.164,35.531 0.314,53.297 -0.291,6.084 -2.131,7.842 -8.03,7.816 C 64.418,-14.05 52.879,-16.786 42.501,-23.602 32.759,-30 29.054,-39.099 31.096,-50.441 c 2.867,-15.923 5.792,-31.839 9.008,-47.694 2.289,-11.281 6.015,-22.247 7.076,-33.819 0.209,-2.28 1.306,-4.675 2.002,-7.009 1.65,-5.536 7.129,-7.149 13.31,-4.296 1.914,0.884 3.73,2.101 5.732,2.655 8.086,2.239 13.098,-0.199 14.818,-9.291 2.132,-11.272 4.15,-22.675 2.412,-34.426 -1.039,-7.025 -1.872,-14.116 -2.977,-21.141 -1.124,-7.152 -4.032,-13.854 -6.29,-20.71 -6.511,-19.763 -16.021,-38.192 -26.468,-56.032 -8.42,-14.379 -17.826,-28.232 -28.542,-41.112 -6.948,-8.352 -6.756,-8.215 -17.446,-5.032 -4.867,1.451 -10.078,1.75 -15.132,2.571 -0.055,1.393 0.52,2.543 1.286,3.673 5.244,7.733 9.141,16.172 12.941,24.667 0.72,1.608 1.32,4.001 3.376,3.724 1.867,-0.251 1.383,-2.721 1.87,-4.24 0.304,-0.949 0.827,-1.872 0.917,-2.838 0.414,-4.454 2.562,-4.199 5.673,-2.371 13.464,7.906 22.119,19.434 26.021,34.499 0.854,3.302 1.463,6.768 -0.864,10.534 -2.072,-2.687 -3.874,-4.994 -5.644,-7.324 -5.405,-7.111 -12.529,-8.858 -20.905,-6.73 -1.291,0.328 -2.577,0.678 -3.877,0.957 -27.166,5.829 -51.025,18.323 -71.35,37.031 -30.118,27.72 -48.443,61.798 -52.826,102.857 -1.241,11.626 -0.35,23.131 2.822,34.549 4.309,-8.197 4.462,-17.979 10.247,-25.548 2.009,1.181 2.155,3.055 2.465,4.823 1.321,7.538 2.52,15.101 3.942,22.62 8.426,44.515 30.352,80.898 65.941,108.966 30.272,23.875 65.385,36.449 102.721,43.814 2.7,0.532 6.98,0.065 7.671,2.268 0.905,2.881 -2.501,5.449 -4.538,7.752 -7.497,8.478 -15.157,16.811 -22.728,25.223 -0.846,0.94 -2.232,2.061 -0.974,3.374 1.003,1.046 2.136,-0.157 3.107,-0.698 9.879,-5.514 19.746,-11.051 29.625,-16.568 14.072,-7.857 27.807,-16.35 44.397,-18.341 11.903,-1.429 23.164,0.777 34.345,4.292 1.443,0.454 2.978,1.193 2.811,3.04 -0.17,1.874 -1.998,2.023 -3.354,2.478 -1.886,0.633 -3.917,0.886 -5.736,1.657 -5.482,2.328 -11.545,3.77 -16.15,9.774 4.297,0.142 7.479,-0.263 10.712,-0.774 7.64,-1.208 15.288,-1.317 22.647,1.483 6.838,2.601 7.674,7.232 2.124,11.895 -5.36,4.503 -11.217,8.321 -17.463,11.519 -7.015,3.591 -13.705,7.619 -17.974,14.568 -4.183,6.807 -2.246,13.936 4.834,17.768 4.141,2.24 8.756,3.076 13.278,4.196 5.32,1.318 10.893,1.5 16.027,3.629 5.254,2.18 6.139,4.896 2.944,9.639 -2.16,3.205 -5.073,5.713 -8.064,8.127 -13.514,10.904 -29.969,15.776 -45.812,21.579 -26.216,9.603 -53.357,16.37 -80.049,24.531 -7.509,2.296 -15.316,3.962 -22.069,8.603 1.245,1.566 2.714,1.855 4.094,2.36 8.519,3.119 10.206,7.272 6.23,15.345 -2.836,5.757 -6.797,10.732 -11.564,14.917 -20.289,17.814 -43.291,31.3 -69.288,38.301 -15.625,4.208 -29.792,10.003 -42.207,20.317 -4.598,3.82 -9.595,7.181 -14.548,10.551 -14.079,9.58 -29.245,16.473 -46.405,18.261 -1.864,0.194 -3.879,0.442 -4.9,-1.493 -0.873,-1.652 0.81,-2.697 1.616,-3.886 5.424,-7.991 11.08,-15.868 13.741,-25.339 1.429,-5.088 -0.123,-8.848 -4.809,-11.27 -2.485,-1.283 -5.238,-2.099 -7.935,-2.911 -6.38,-1.922 -12.652,-4.026 -18.392,-7.547 -11.365,-6.971 -14.51,-17.06 -8.899,-29.042 2.356,-5.029 5.766,-9.303 9.488,-13.371 1.341,-1.467 3.104,-2.779 3.291,-5.063 -2.438,-0.693 -4.035,0.552 -5.574,1.31 -17.651,8.689 -35.723,16.208 -54.98,20.626 -9.418,2.16 -18.909,3.978 -28.503,4.956 -7.325,0.747 -8.168,-0.652 -5.521,-7.235 3.579,-8.897 4.289,-18.045 2.796,-27.464 -0.807,-5.09 -1.25,-10.239 -2.085,-15.324 -0.778,-4.745 1.505,-5.025 4.977,-3.666 6.032,2.365 12.017,4.847 18.046,7.224 1.072,0.423 2.525,0.785 3.22,-0.305 0.9,-1.409 -0.75,-1.925 -1.544,-2.618 -5.653,-4.918 -11.422,-9.699 -16.455,-15.29 -24.153,-26.826 -35.647,-58.755 -38.219,-94.335 -2.735,-37.825 5.39,-73.069 24.919,-105.62 1.361,-2.269 3.154,-4.283 4.773,-6.395 0.546,-0.713 1.376,-1.183 2.133,-0.597 0.389,0.301 0.477,1.216 0.413,1.822 -0.104,0.98 -0.429,1.94 -0.691,2.899 -6.879,25.156 -10.195,50.444 -4.569,76.433 6.491,29.987 22.556,52.888 48.924,68.541 1.157,0.688 2.65,2.337 3.918,0.869 1.173,-1.36 -0.436,-2.799 -1.236,-3.938 -6.148,-8.758 -11.264,-18.08 -15.177,-28.024 -7.642,-19.422 -12.709,-39.231 -9.192,-60.412 2.161,-13.012 10.021,-22.146 21.953,-24.048 9.614,-1.532 18.473,1.551 26.841,5.9 16.969,8.818 33.737,18.029 50.775,26.711 6.554,3.34 13.248,6.762 22.012,7.757 -11.334,-13.375 -23.54,-24.518 -33.947,-37.629 2.894,-1.283 4.449,0.204 5.975,0.88 32.202,14.237 65.554,24.875 100.079,31.696 5.829,1.151 11.843,3.047 19.497,1.111 C -96.592,31.224 -144.519,-21 -157.008,-101.033 c -2.838,0.747 -3.844,2.136 -5.074,3.223 -8.559,7.569 -15.119,16.812 -21.799,25.959 -0.946,1.296 -1.705,3.462 -3.337,3.311 -1.911,-0.177 -2.636,-2.435 -3.152,-4.12 -2.771,-9.053 -5.7,-18.069 -7.466,-27.396 -3.114,-16.453 -3.643,-33.073 -3.207,-49.758 0.036,-1.42 0.52,-3.315 -1.109,-4.063 -1.687,-0.774 -2.638,0.99 -3.702,1.926 -13.849,12.198 -24.947,26.728 -35.429,41.788 -1.052,1.51 -1.832,4.264 -3.977,3.669 -1.99,-0.552 -1.889,-3.275 -2.123,-5.235 -2.158,-18.105 -2.78,-36.148 1.016,-54.183 3.977,-18.9 13.622,-32.604 32.951,-38.172 6.544,-1.885 12.95,-4.243 19.489,-6.145 20.379,-5.926 35.619,-17.978 45.449,-36.964 10.24,-19.779 12.788,-41.262 14.72,-62.933 -0.436,-3.364 -2.969,-3.111 -5.28,-2.907 -19.069,1.676 -38.185,1.286 -57.274,0.943 -17.566,-0.314 -35.217,-0.486 -52.63,-2.471 -7.226,-0.822 -14.849,0.267 -21.884,-2.64 -0.625,-0.259 -1.724,0.631 -2.604,0.987 -2.187,5.156 -4.314,10.338 -6.57,15.463 -20.123,45.705 -43.544,89.827 -64.795,134.988 -14.809,31.469 -31.321,62.177 -42.978,95.073 -1.027,2.897 -4.023,6.257 -1.987,8.709 1.919,2.309 5.571,-0.378 8.412,-0.917 13.971,-2.65 27.919,-5.377 42.052,-7.09 12.83,-1.556 25.619,-3.453 38.452,-4.984 2.13,-0.254 5.45,-1.442 6.398,0.768 1.111,2.595 -2.15,4.144 -3.931,5.641 -12.754,10.718 -25.129,21.792 -36.059,34.441 -34.96,40.458 -55.093,87.056 -58.464,140.607 -1.883,29.909 2.256,58.899 13.733,86.72 0.582,1.41 2.461,3.265 0.904,4.443 -1.657,1.255 -3.185,-1.05 -4.741,-1.816 -0.858,-0.423 -1.5,-1.301 -2.215,-2 -6.548,-6.405 -12.817,-13.069 -18.772,-20.035 -28.431,-33.248 -45.678,-71.42 -49.025,-115.162 -1.777,-23.23 -0.674,-46.558 3.845,-69.542 5.048,-25.669 12.608,-50.634 21.893,-75.071 11.424,-30.068 24.975,-59.2 39.097,-88.074 19.079,-39.007 38.191,-77.997 57.201,-117.037 4.927,-10.119 10.102,-20.137 13.999,-30.73 -2.158,-1.536 -4.784,-1.16 -7.161,-1.52 -10.572,-1.597 -20.987,-4.307 -31.742,-4.645 -8.678,14.727 -17.074,29.63 -26.09,44.149 -29.087,46.841 -58.407,93.537 -87.626,140.297 -23.916,38.274 -46,77.523 -63.182,119.359 -7.417,18.06 -14.221,36.332 -18.637,55.409 -1.449,6.261 -3.064,12.484 -4.649,18.712 -0.279,1.093 -0.542,2.384 -2.203,2.121 -1.437,-0.228 -1.81,-1.297 -1.96,-2.518 -0.508,-4.12 -1.45,-8.243 -1.43,-12.36 0.081,-17.294 -0.718,-34.565 1.121,-51.882 1.821,-17.159 4.61,-34.097 8.78,-50.771 7.249,-28.983 18.285,-56.595 31.42,-83.405 22.853,-46.647 51.249,-90.044 78.374,-134.189 11.555,-18.807 23.371,-37.459 34.092,-56.766 -7.482,-3.52 -15.821,-4.298 -23.612,-7.115 -5.266,-1.905 -11.46,-4.196 -17.658,-4.206"
                  style="fill:#1a1a17;fill-opacity:1;fill-rule:evenodd;stroke:none" id="path58" />
              </g>
              <g transform="translate(974.9922,1044.2646)" id="g64">
                <path
                  d="m 0,0 c 14.036,8.069 26.033,17.269 33.079,31.562 3.374,6.845 1.65,9.493 -6.064,10.586 -7.299,1.036 -13.595,4.187 -19.203,8.909 -1.921,1.618 -2.729,3.025 0.044,4.378 3.373,1.643 1.723,2.667 -0.287,3.941 -8.728,5.532 -16.727,11.78 -23.856,19.475 -13.583,14.66 -30.78,24.109 -49.329,31.164 -1.114,0.424 -2.623,1.679 -3.48,-0.081 -0.769,-1.582 0.925,-2.296 1.934,-2.992 7.004,-4.825 13.39,-10.418 19.945,-15.805 6.963,-5.723 11.689,-12.609 12.612,-21.824 0.401,-4.007 -0.802,-6.255 -5.083,-6.914 -7.72,-1.186 -15.369,-2.818 -22.497,-6.198 -26.079,-12.367 -43.546,-33.346 -57.607,-57.716 -0.352,-0.609 -0.329,-1.262 0.378,-1.904 3.349,0.77 5.574,3.333 7.952,5.572 15.938,15.008 34.552,22.29 56.683,21.13 14.257,-0.747 28.542,-2.757 42.888,-0.413 6.435,1.051 12.687,2.604 18.789,4.786 1.923,0.688 4.155,1.859 5.61,0.505 1.928,-1.793 0.108,-4.13 -0.828,-5.913 C 9.211,17.546 6.833,12.776 3.412,8.618 1.659,6.487 -0.243,4.283 0,0 m -118.615,-463.449 c -1.933,21.671 -4.481,43.154 -14.72,62.932 -9.83,18.987 -25.07,31.038 -45.449,36.964 -6.539,1.903 -12.945,4.261 -19.489,6.146 -19.33,5.568 -28.974,19.271 -32.952,38.172 -3.796,18.035 -3.173,36.078 -1.015,54.183 0.233,1.96 0.133,4.683 2.123,5.235 2.144,0.594 2.925,-2.16 3.976,-3.669 10.483,-15.06 21.58,-29.59 35.43,-41.788 1.064,-0.936 2.015,-2.701 3.701,-1.926 1.629,0.748 1.146,2.642 1.11,4.062 -0.436,16.686 0.092,33.306 3.207,49.759 1.765,9.327 4.695,18.343 7.465,27.396 0.516,1.685 1.242,3.943 3.153,4.12 1.632,0.151 2.39,-2.015 3.337,-3.311 6.679,-9.147 13.24,-18.39 21.799,-25.959 1.23,-1.088 2.236,-2.476 5.074,-3.223 12.489,80.033 60.416,132.256 133.045,165.898 -7.655,1.936 -13.668,0.04 -19.497,-1.111 -34.526,-6.822 -67.877,-17.459 -100.079,-31.697 -1.527,-0.675 -3.082,-2.163 -5.975,-0.88 10.406,13.112 22.612,24.254 33.946,37.629 -8.763,-0.995 -15.458,-4.417 -22.012,-7.756 -17.038,-8.682 -33.805,-17.893 -50.774,-26.711 -8.368,-4.349 -17.227,-7.432 -26.842,-5.9 -11.931,1.902 -19.792,11.035 -21.953,24.048 -3.516,21.181 1.551,40.989 9.193,60.412 3.913,9.944 9.029,19.266 15.176,28.024 0.8,1.139 2.409,2.578 1.237,3.938 -1.268,1.468 -2.761,-0.182 -3.918,-0.869 -26.369,-15.653 -42.433,-38.555 -48.924,-68.541 -5.626,-25.989 -2.311,-51.277 4.568,-76.434 0.263,-0.959 0.588,-1.919 0.692,-2.898 0.064,-0.607 -0.025,-1.522 -0.414,-1.822 -0.756,-0.586 -1.586,-0.117 -2.132,0.596 -1.619,2.113 -3.412,4.126 -4.774,6.396 -19.528,32.551 -27.653,67.795 -24.919,105.62 2.573,35.58 14.067,67.509 38.22,94.335 5.032,5.591 10.802,10.372 16.454,15.29 0.795,0.692 2.444,1.209 1.545,2.618 -0.695,1.09 -2.148,0.728 -3.221,0.305 -6.028,-2.377 -12.013,-4.86 -18.046,-7.224 -3.471,-1.359 -5.754,-1.079 -4.976,3.666 0.835,5.085 1.277,10.234 2.085,15.323 1.493,9.419 0.783,18.568 -2.796,27.464 -2.648,6.583 -1.805,7.983 5.52,7.236 9.594,-0.978 19.085,-2.796 28.503,-4.956 19.257,-4.418 37.329,-11.937 54.981,-20.626 1.539,-0.758 3.136,-2.003 5.573,-1.31 -0.186,2.284 -1.949,3.596 -3.291,5.063 -3.722,4.068 -7.132,8.341 -9.487,13.371 -5.612,11.982 -2.466,22.071 8.898,29.042 5.74,3.521 12.013,5.625 18.393,7.546 2.696,0.813 5.45,1.628 7.934,2.912 4.687,2.421 6.239,6.182 4.81,11.27 -2.661,9.471 -8.317,17.348 -13.741,25.339 -0.807,1.188 -2.49,2.233 -1.616,3.886 1.021,1.934 3.036,1.687 4.9,1.493 17.16,-1.788 32.325,-8.681 46.404,-18.261 4.953,-3.37 9.95,-6.731 14.549,-10.552 12.414,-10.313 26.582,-16.108 42.207,-20.316 25.996,-7.001 48.999,-20.487 69.287,-38.301 4.768,-4.185 8.729,-9.16 11.565,-14.917 3.975,-8.073 2.289,-12.226 -6.231,-15.345 -1.38,-0.505 -2.848,-0.794 -4.094,-2.36 6.753,-4.641 14.561,-6.307 22.07,-8.603 26.691,-8.161 53.833,-14.928 80.049,-24.532 15.842,-5.802 32.297,-10.674 45.812,-21.579 2.99,-2.413 5.903,-4.922 8.064,-8.127 3.195,-4.742 2.309,-7.459 -2.945,-9.638 -5.134,-2.129 -10.707,-2.311 -16.026,-3.629 -4.523,-1.12 -9.138,-1.956 -13.278,-4.197 -7.081,-3.832 -9.017,-10.96 -4.834,-17.767 4.269,-6.949 10.959,-10.978 17.973,-14.568 6.246,-3.199 12.104,-7.016 17.464,-11.519 5.55,-4.663 4.714,-9.294 -2.124,-11.896 -7.359,-2.799 -15.008,-2.69 -22.647,-1.482 -3.234,0.511 -6.415,0.916 -10.712,0.773 4.604,-6.003 10.668,-7.445 16.15,-9.773 1.818,-0.771 3.85,-1.024 5.735,-1.657 1.357,-0.455 3.185,-0.605 3.355,-2.479 0.167,-1.846 -1.368,-2.586 -2.812,-3.04 -11.18,-3.514 -22.441,-5.72 -34.344,-4.292 -16.59,1.991 -30.326,10.485 -44.398,18.342 -9.879,5.517 -19.745,11.054 -29.625,16.567 -0.971,0.541 -2.103,1.745 -3.106,0.699 -1.258,-1.313 0.128,-2.434 0.973,-3.374 7.572,-8.412 15.232,-16.745 22.729,-25.223 2.037,-2.304 5.442,-4.871 4.538,-7.752 -0.691,-2.203 -4.972,-1.736 -7.671,-2.269 -37.337,-7.364 -72.449,-19.938 -102.722,-43.813 -35.589,-28.068 -57.514,-64.451 -65.94,-108.966 -1.423,-7.519 -2.621,-15.082 -3.942,-22.62 -0.31,-1.768 -0.457,-3.642 -2.465,-4.823 -5.785,7.569 -5.939,17.35 -10.247,25.548 -3.172,-11.418 -4.064,-22.923 -2.823,-34.549 4.383,-41.06 22.708,-75.137 52.827,-102.858 20.325,-18.708 44.183,-31.202 71.349,-37.03 1.301,-0.279 2.587,-0.63 3.877,-0.957 8.377,-2.128 15.5,-0.382 20.905,6.73 1.771,2.33 3.573,4.636 5.645,7.324 2.327,-3.766 1.718,-7.233 0.863,-10.534 -3.901,-15.065 -12.556,-26.593 -26.02,-34.499 -3.112,-1.828 -5.259,-2.083 -5.673,2.371 -0.09,0.966 -0.613,1.888 -0.917,2.838 -0.487,1.519 -0.003,3.989 -1.87,4.24 -2.057,0.277 -2.657,-2.116 -3.376,-3.725 -3.8,-8.494 -7.698,-16.933 -12.942,-24.667 -0.765,-1.13 -1.34,-2.279 -1.286,-3.673 -15.6,2.122 -31.197,4.269 -46.804,6.346 -4.929,0.655 -9.886,1.103 -14.826,1.686 -2.447,0.289 -5.012,0.141 -7.141,1.748 -1.07,21.038 -5.021,41.523 -11.46,61.59 -0.819,-0.997 -1.132,-1.926 -1.258,-2.881 -2.003,-15.125 -7.264,-28.994 -16.368,-41.256 -3.951,-5.321 -8.449,-10.238 -12.699,-15.339 -2.442,0.117 -4.884,0.345 -7.324,0.319 -2.485,-0.026 -3.89,1.113 -4.476,3.439"
                  style="fill:#f4bf18;fill-opacity:1;fill-rule:evenodd;stroke:none" id="path62" />
              </g>
              <g transform="translate(524.0117,1311.998)" id="g68">
                <path
                  d="m 0,0 c 25.676,8.038 51.33,16.118 76.406,25.945 58.899,23.08 115.201,50.981 166.092,88.974 12.539,9.36 24.854,19.022 37.294,28.517 5.9,4.501 6.008,4.568 11.808,-0.337 35.826,-30.304 74.444,-56.52 115.565,-79.08 43.099,-23.645 88.181,-42.689 134.775,-58.27 41.713,-13.948 84.345,-24.263 127.536,-32.302 32.78,-6.101 65.892,-9.577 99.184,-11.353 7.153,-0.382 14.298,-0.937 21.454,-1.232 4.245,-0.174 6.161,-2.234 6.8,-6.367 9.482,-61.393 13.968,-123.118 11.914,-185.236 -1.289,-38.982 -5.191,-77.718 -11.447,-116.246 -9.168,-56.459 -23.825,-111.44 -43.61,-165.053 -17.875,-48.44 -39.943,-94.927 -66.042,-139.5 -26.21,-44.759 -56.083,-86.917 -89.363,-126.683 -1.158,-1.382 -2.093,-2.954 -3.131,-4.437 -10.242,2.211 -19.809,6.569 -29.876,9.359 -10.398,2.883 -20.655,6.314 -31.126,8.889 -4.616,1.136 -3.526,2.528 -1.502,5.069 8.401,10.542 16.509,21.324 25.144,31.669 31.41,37.629 60.146,77.149 84.733,119.585 19.595,33.82 36.606,68.91 50.98,105.288 15.538,39.327 27.861,79.643 36.88,120.91 7.604,34.8 12.576,70.03 15.387,105.585 3.066,38.779 3.264,77.554 0.881,116.329 -1.715,27.912 -4.98,55.688 -9.262,83.338 -0.676,4.361 -3.287,5.171 -6.961,5.415 -16.448,1.094 -32.901,2.136 -49.326,3.511 -29.892,2.504 -59.341,7.873 -88.611,14.275 -48.654,10.642 -95.922,25.649 -141.618,45.48 -51.178,22.209 -99.113,49.918 -142.754,84.831 -5.198,4.159 -10.548,8.157 -15.462,12.632 -3.57,3.252 -6.336,2.976 -9.995,0.151 C 266.674,77.246 250.827,64.525 234.053,53.048 202.796,31.662 169.5,14.009 134.786,-1.036 c -3.2,-1.387 -6.412,-2.747 -9.618,-4.12 C 114.45,-5.75 104.047,-2.869 93.433,-2.209 90.659,-2.037 87.87,-1.328 85.035,-1.23 72.555,-0.801 60.076,-0.027 47.596,0.008 35.784,0.042 23.97,-0.689 12.168,-1.084 8.16,-0.275 3.858,-2.624 0,0"
                  style="fill:#fbf9f8;fill-opacity:1;fill-rule:evenodd;stroke:none" id="path66" />
              </g>
              <g transform="translate(673.1533,569.1221)" id="g72">
                <path
                  d="m 0,0 c -3.896,10.594 -9.071,20.611 -13.999,30.73 -19.01,39.041 -38.121,78.031 -57.2,117.038 -14.122,28.874 -27.674,58.005 -39.098,88.074 -9.285,24.436 -16.845,49.401 -21.892,75.07 -4.52,22.984 -5.623,46.313 -3.845,69.542 3.347,43.742 20.594,81.914 49.024,115.162 5.955,6.966 12.225,13.63 18.773,20.035 0.715,0.7 1.356,1.578 2.215,2 1.555,0.766 3.084,3.072 4.741,1.817 1.556,-1.179 -0.323,-3.033 -0.905,-4.444 -11.476,-27.821 -15.616,-56.811 -13.733,-86.719 3.371,-53.552 23.504,-100.15 58.465,-140.608 10.93,-12.648 23.305,-23.722 36.058,-34.44 1.782,-1.497 5.042,-3.047 3.931,-5.642 -0.947,-2.21 -4.267,-1.021 -6.397,-0.767 -12.833,1.53 -25.622,3.427 -38.452,4.983 -14.133,1.713 -28.082,4.44 -42.052,7.09 -2.842,0.539 -6.493,3.226 -8.412,0.917 -2.036,-2.451 0.96,-5.812 1.986,-8.709 11.657,-32.896 28.17,-63.604 42.979,-95.072 C -6.562,110.896 16.858,66.773 36.981,21.068 39.237,15.943 41.364,10.762 43.552,5.605 42.78,4.605 41.687,4.292 40.5,4.151 27.983,2.664 15.47,1.157 2.949,-0.291 1.99,-0.402 0.984,-0.106 0,0"
                  style="fill:#f3be1b;fill-opacity:1;fill-rule:evenodd;stroke:none" id="path70" />
              </g>
              <g transform="translate(582.2607,551.1133)" id="g76">
                <path
                  d="m 0,0 c -10.721,19.308 -22.537,37.959 -34.092,56.766 -27.125,44.145 -55.521,87.543 -78.374,134.189 -13.135,26.81 -24.171,54.422 -31.42,83.405 -4.17,16.674 -6.959,33.612 -8.78,50.771 -1.839,17.317 -1.04,34.588 -1.121,51.882 -0.02,4.117 0.922,8.24 1.43,12.36 0.15,1.221 0.523,2.29 1.96,2.518 1.661,0.263 1.924,-1.028 2.203,-2.12 1.585,-6.229 3.2,-12.452 4.649,-18.712 4.416,-19.078 11.22,-37.35 18.637,-55.41 17.182,-41.836 39.266,-81.085 63.182,-119.359 C -32.507,149.53 -3.187,102.834 25.9,55.993 34.916,41.475 43.312,26.571 51.99,11.844 48.25,8.886 43.533,9.275 39.258,8.344 27.291,5.734 15.288,3.309 3.442,0.17 2.356,-0.117 1.15,0.046 0,0"
                  style="fill:#f3be1b;fill-opacity:1;fill-rule:evenodd;stroke:none" id="path74" />
              </g>
              <g transform="translate(1166.6504,332.7363)" id="g80">
                <path
                  d="m 0,0 c 0.137,1.47 0.248,2.102 0.248,2.734 0.006,48.49 -0.018,96.979 0.059,145.468 0.004,2.735 -0.907,4.041 -3.368,5.258 -21.332,10.55 -43.419,19.217 -65.974,26.713 -43.803,14.559 -88.654,24.573 -134.303,31.351 -39.427,5.855 -79.031,9.37 -118.846,10.49 -61.578,1.732 -122.886,-1.694 -183.789,-11.045 -34.028,-5.225 -67.688,-12.361 -100.808,-21.873 -32.144,-9.233 -63.476,-20.617 -93.679,-35.057 -3.294,-1.574 -4.586,-3.438 -4.576,-7.17 0.122,-47.322 0.107,-94.645 0.022,-141.969 -0.007,-4.016 0.477,-5.004 4.424,-2.595 33.096,20.195 68.601,35.082 105.499,46.622 58.228,18.21 118.026,28.232 178.796,32.246 55.282,3.651 110.515,2.786 165.651,-3.502 34.598,-3.946 68.83,-9.679 102.622,-18.025 C -109.7,50.183 -72.484,37.552 -36.912,20.312 -24.504,14.299 -12.498,7.532 0,0 m 9.314,71.355 c 0,-26.495 0.021,-52.989 -0.045,-79.484 -0.005,-1.838 1.056,-4.418 -1.39,-5.328 -2.411,-0.897 -4.339,0.256 -6.603,1.921 -5.126,3.77 -10.99,6.52 -16.446,9.863 -11.328,6.942 -23.297,12.685 -35.281,18.309 -11.105,5.21 -22.473,9.856 -34.115,13.918 -12.339,4.303 -24.496,9.263 -37.13,12.538 -9.663,2.504 -18.889,6.522 -29.054,7.534 -5.89,0.587 -11.633,3.158 -17.558,4.493 -9.301,2.097 -18.807,3.152 -28.042,5.355 -9.134,2.179 -18.473,2.961 -27.62,5.1 -7.009,1.64 -14.444,1.703 -21.684,2.52 -19.434,2.19 -39.017,3.062 -58.481,4.715 -28.147,2.388 -56.243,1.716 -84.28,0.939 -18.091,-0.502 -36.355,-1.493 -54.382,-3.728 -11.766,-1.459 -23.619,-2.36 -35.283,-4.157 -9.626,-1.482 -19.326,-3.475 -28.942,-5.033 -11.554,-1.87 -23.011,-4.317 -34.308,-6.977 -11.181,-2.632 -22.475,-5.167 -33.519,-8.814 -9.388,-3.1 -19.074,-5.642 -28.579,-8.647 -15.444,-4.885 -30.328,-11.075 -45.166,-17.541 -10.791,-4.703 -21.398,-9.694 -31.67,-15.374 -8.365,-4.627 -16.431,-9.795 -24.64,-14.706 -1.414,-0.846 -2.792,-1.912 -4.337,-2.35 -4.177,-1.189 -5.959,0.225 -5.133,4.405 0.986,4.99 0.565,9.964 0.57,14.94 0.048,44.158 0.006,88.316 0.06,132.473 0.006,4.786 -0.2,9.583 -0.238,14.358 -0.055,6.807 4.95,7.869 9.095,9.386 5.68,2.079 10.695,5.379 16.295,7.614 10.76,4.293 21.427,8.826 32.342,12.722 10.18,3.635 20.341,7.361 30.662,10.555 10.796,3.341 21.52,6.947 32.582,9.44 9.383,2.115 18.539,5.363 27.987,7.018 8.45,1.48 16.831,3.225 25.23,4.917 9.127,1.84 18.232,3.503 27.557,4.474 8.771,0.913 17.606,2.379 26.327,3.889 12.541,2.172 25.187,2.536 37.7,4.082 22.95,2.834 45.979,2.495 68.9,4.167 14.261,1.04 28.533,1.9 42.617,0.959 16.234,-1.083 32.491,-0.7 48.643,-1.997 7.933,-0.637 16.002,-0.55 23.785,-1.824 13.24,-2.168 26.702,-1.591 39.843,-3.927 10.575,-1.88 21.48,-2.084 31.771,-4.359 14.287,-3.158 28.836,-4.974 43.037,-8.814 9.883,-2.672 20.2,-4.271 30.232,-6.693 10.783,-2.603 21.272,-6.575 32.136,-8.653 8.457,-1.617 15.972,-5.604 24.25,-7.604 7.565,-1.828 14.704,-5.406 22.051,-8.16 15.31,-5.741 30.126,-12.608 44.979,-19.411 3.98,-1.822 5.302,-4.458 5.292,-8.539 C 9.267,125.012 9.298,98.184 9.298,71.355 Z"
                  style="fill:#282221;fill-opacity:1;fill-rule:evenodd;stroke:none" id="path78" />
              </g>
              <g transform="translate(1063.959,305.0605)" id="g84">
                <path
                  d="m 0,0 c 0,14.822 -0.025,29.645 0.012,44.466 0.013,5.477 0.634,5.977 5.797,4.03 C 19.949,43.16 34.04,37.757 47.759,31.305 58.885,26.072 70.021,21.001 80.29,14.191 c 0.89,-0.589 2.556,-0.269 2.496,-1.9 C 82.727,10.66 81.323,10.392 80.04,9.875 67.104,4.67 54.176,-0.557 41.294,-5.894 31.005,-10.155 20.804,-14.629 10.272,-18.285 6.602,-19.56 4.11,-28.028 6.458,-31.066 c 0.783,-1.014 1.646,-0.716 2.635,-0.321 9.898,3.958 19.797,7.916 29.72,11.812 11.49,4.509 23.013,8.935 34.506,13.435 7.26,2.842 14.579,5.555 21.703,8.708 3.962,1.754 6.562,-0.361 9.291,-2.292 1.001,-0.709 1.362,-2.243 2.976,-2.329 1.397,-0.075 2.788,-0.428 2.613,-2.264 -0.16,-1.673 -1.52,-2.905 -2.812,-3.221 C 98.536,-9.635 91.156,-14.651 83.006,-17.405 66.815,-22.876 51.244,-29.793 35.386,-36.027 25.183,-40.038 14.862,-43.835 4.971,-48.521 -0.257,-50.998 0.045,-48.265 0.037,-44.965 0.002,-29.977 0.021,-14.988 0.021,0 Z"
                  style="fill:#211817;fill-opacity:1;fill-rule:evenodd;stroke:none" id="path82" />
              </g>
              <g transform="translate(481.1416,317.9141)" id="g88">
                <path
                  d="m 0,0 c 10.332,5.203 19.675,10.986 29.616,15.703 12.751,6.051 25.823,11.333 38.827,16.753 3.539,1.476 7.551,2.205 11.145,3.813 1.93,0.863 2.49,-0.258 2.846,-1.554 0.345,-1.258 0.399,-2.624 0.401,-3.944 0.025,-29.474 0.011,-58.951 0.051,-88.425 0.005,-3.641 0.531,-6.027 -4.927,-3.543 -10.283,4.679 -20.873,8.765 -31.389,12.936 -14.923,5.919 -29.772,12.036 -44.815,17.678 -8.61,3.229 -17.247,6.602 -25.609,10.512 -4.139,1.936 -3.608,2.543 -0.375,5.462 6.866,6.197 13.166,5.11 20.86,1.207 9.169,-4.653 19.149,-7.705 28.775,-11.461 14.825,-5.783 29.629,-11.622 44.49,-17.316 2.316,-0.887 5.321,-2.448 6.807,1.12 1.631,3.916 -0.071,9.423 -3.052,9.891 -6.321,0.992 -11.77,4.287 -17.413,6.731 -12.654,5.481 -25.811,9.718 -38.253,15.636 C 12.098,-5.999 5.317,-4.946 0,0"
                  style="fill:#211817;fill-opacity:1;fill-rule:evenodd;stroke:none" id="path86" />
              </g>
              <g transform="translate(1190.1523,393.0723)" id="g92">
                <path
                  d="m 0,0 c -0.091,1.66 -0.192,3.321 -0.271,4.982 -0.261,5.607 0.812,6.886 6.585,6.785 20.46,-0.358 40.929,0.785 61.394,-0.666 4.876,-0.346 9.898,0.883 14.897,0.735 1.881,-0.057 3.89,-0.09 4.882,-1.865 C 88.631,7.924 87.302,6.261 86.078,4.569 78.033,-6.547 71.058,-18.38 63.329,-29.697 57.031,-38.919 50.725,-48.139 44.406,-57.348 c -5.698,-8.306 -5.947,-8.277 -0.43,-15.929 11.11,-15.41 21.061,-31.592 31.653,-47.348 3.321,-4.941 6.88,-9.726 10.119,-14.718 1.003,-1.546 2.831,-3.245 1.562,-5.399 -1.123,-1.907 -3.255,-1.339 -5.028,-1.339 -58.977,-0.013 -117.955,-0.003 -176.932,0.006 -1,10e-4 -2.003,-0.026 -2.998,0.046 -1.43,0.103 -3.294,-0.253 -3.225,2.05 0.059,1.937 1.694,1.7 2.979,1.798 6.958,0.534 12.131,5.788 18.799,7.091 1.293,0.253 2.564,0.621 3.846,0.937 2.241,-1.659 4.845,-0.96 7.27,-0.963 43.973,-0.054 87.946,-0.042 131.918,0.001 1.408,0.001 3.305,-0.794 4.141,0.757 0.849,1.574 -0.935,2.637 -1.709,3.805 -12.762,19.263 -25.487,38.55 -38.436,57.686 -2.068,3.054 -1.681,5.06 0.251,7.877 12.877,18.779 25.6,37.663 38.314,56.553 0.763,1.134 2.688,2.214 1.673,3.744 -0.857,1.29 -2.778,0.6 -4.219,0.604 C 42.636,-0.034 21.317,-0.022 0,0"
                  style="fill:#282221;fill-opacity:1;fill-rule:evenodd;stroke:none" id="path90" />
              </g>
              <g transform="translate(481.373,274.8613)" id="g96">
                <path
                  d="m 0,0 c 11.064,-2.204 20.947,-7.565 31.288,-11.703 1.24,-0.496 0.466,-1.14 0.107,-1.747 -1.493,0.062 -2.982,0.18 -4.47,0.181 -44.809,0.009 -89.616,0 -134.424,0.031 -1.448,10e-4 -3.451,-0.733 -4.239,0.563 -0.988,1.622 0.888,2.938 1.744,4.226 12.232,18.431 24.311,36.97 36.918,55.144 3.397,4.898 3.957,8.623 -0.229,12.85 -0.348,0.351 -0.647,0.762 -0.926,1.174 -12.125,17.897 -24.259,35.789 -36.342,53.714 -1.209,1.793 -3.636,4.223 1.383,4.203 22.149,-0.091 44.298,-0.13 66.448,-0.188 0.023,-4.28 0.047,-8.56 0.072,-12.838 -15.165,0.002 -30.331,0.002 -46.478,0.002 11.52,-17.019 22.192,-32.869 32.982,-48.637 1.66,-2.426 2.379,-4.257 0.456,-7.083 -10.294,-15.124 -20.373,-30.395 -30.474,-45.65 -0.778,-1.175 -2.605,-2.215 -1.848,-3.782 0.767,-1.589 2.692,-0.806 4.09,-0.808 24.832,-0.049 49.663,-0.057 74.495,-0.031 C -6.298,-0.376 -3.148,-0.132 0,0"
                  style="fill:#eeeeee;fill-opacity:1;fill-rule:evenodd;stroke:none" id="path94" />
              </g>
              <g transform="translate(438.6309,393.3096)" id="g100">
                <path
                  d="m 0,0 c -22.149,0.058 -44.299,0.097 -66.448,0.187 -5.019,0.021 -2.592,-2.41 -1.383,-4.203 12.083,-17.924 24.217,-35.816 36.342,-53.713 0.279,-0.413 0.578,-0.823 0.927,-1.174 4.185,-4.227 3.625,-7.952 0.228,-12.85 -12.606,-18.174 -24.686,-36.713 -36.918,-55.144 -0.855,-1.289 -2.731,-2.604 -1.744,-4.226 0.788,-1.296 2.791,-0.563 4.239,-0.564 44.808,-0.03 89.615,-0.021 134.424,-0.03 1.488,-10e-4 2.978,-0.119 4.47,-0.181 8.823,1.067 15.364,-5.709 23.547,-6.867 0.846,-0.119 1.415,-0.892 1.4,-1.83 -0.021,-1.328 -1.015,-1.577 -2.053,-1.627 -1.497,-0.072 -2.997,-0.09 -4.496,-0.09 -58.472,0 -116.943,-0.002 -175.414,0.058 -1.844,0.002 -4.277,-1.065 -5.423,1.253 -1.052,2.128 1.328,3.189 2.208,4.641 9.7,15.981 20.383,31.31 31.014,46.679 4.699,6.794 8.477,14.202 13.513,20.817 2.036,2.676 1.343,5.973 -0.705,8.382 -9.874,11.6 -16.983,25.114 -25.878,37.411 -6.414,8.866 -13.039,17.815 -18.353,27.521 -0.828,1.513 -2.996,2.598 -1.75,4.729 1.251,2.137 3.53,1.497 5.454,1.501 16.658,0.032 33.318,0.013 49.976,0.01 8.662,-0.002 17.325,0.012 25.987,-0.006 C 0.354,10.668 0.632,10.364 0.347,2.97 0.309,1.978 0.119,0.99 0,0"
                  style="fill:#211817;fill-opacity:1;fill-rule:evenodd;stroke:none" id="path98" />
              </g>
              <g transform="translate(457.4414,507.9932)" id="g104">
                <path
                  d="m 0,0 c 1.104,4.646 4.976,7.92 5.868,12.829 1.124,6.187 0.734,12.042 -2.266,17.416 -9.749,17.465 -19.464,35.022 -27.056,53.475 -5.523,13.424 -9.951,27.409 -13.617,41.593 -2.421,9.37 -3.475,18.862 -5.621,29.552 5.791,-6.754 9.188,-13.53 13.481,-19.681 6.027,-8.638 11.807,-17.46 18.106,-25.896 C -0.981,95.729 9.399,82.358 19.819,69.023 30.954,54.775 42.254,40.657 53.498,26.495 54.534,25.191 55.664,23.971 55.728,22.181 37.048,15.05 18.38,7.887 0,0"
                  style="fill:#fbf9f8;fill-opacity:1;fill-rule:evenodd;stroke:none" id="path102" />
              </g>
              <g transform="translate(1190.1523,393.0723)" id="g108">
                <path
                  d="m 0,0 c 21.317,-0.022 42.636,-0.034 63.954,-0.089 1.441,-0.004 3.362,0.686 4.219,-0.604 1.015,-1.53 -0.91,-2.61 -1.673,-3.744 -12.714,-18.89 -25.437,-37.774 -38.314,-56.553 -1.932,-2.817 -2.319,-4.823 -0.251,-7.877 12.949,-19.136 25.674,-38.423 38.436,-57.686 0.774,-1.168 2.558,-2.231 1.709,-3.805 -0.836,-1.551 -2.733,-0.756 -4.141,-0.757 -43.972,-0.043 -87.945,-0.055 -131.918,-0.001 -2.425,0.003 -5.029,-0.696 -7.27,0.963 10.561,4.117 20.625,9.559 31.845,11.924 0.484,-0.116 0.966,-0.331 1.448,-0.332 27.813,-0.03 55.628,-0.01 83.441,-0.093 4.307,-0.013 3.775,1.391 1.884,4.204 -10.204,15.184 -20.219,30.496 -30.45,45.662 -1.803,2.673 -2.172,4.602 -0.107,7.407 4.626,6.285 8.839,12.874 13.213,19.345 6.382,9.441 12.758,18.888 19.798,29.311 H 0.018 C -0.714,-8.484 -0.666,-4.243 0,0"
                  style="fill:#eeeeee;fill-opacity:1;fill-rule:evenodd;stroke:none" id="path106" />
              </g>
              <g transform="translate(481.373,274.8613)" id="g112">
                <path
                  d="m 0,0 c -3.148,-0.132 -6.298,-0.376 -9.447,-0.379 -24.832,-0.026 -49.663,-0.018 -74.495,0.031 -1.398,0.002 -3.323,-0.781 -4.09,0.808 -0.757,1.567 1.07,2.607 1.848,3.782 10.101,15.255 20.18,30.526 30.474,45.65 1.923,2.826 1.204,4.657 -0.456,7.083 -10.79,15.768 -21.462,31.618 -32.982,48.637 16.147,0 31.313,0 46.478,-0.002 0.096,-20.63 0.196,-41.256 0.288,-61.883 0.031,-6.989 0.304,-13.991 -0.057,-20.959 -0.178,-3.411 1.501,-4.871 4.018,-5.904 8.812,-3.618 17.766,-6.903 26.476,-10.746 C -7.877,4.323 -3.098,3.739 0,0"
                  style="fill:#211817;fill-opacity:1;fill-rule:evenodd;stroke:none" id="path110" />
              </g>
              <g transform="translate(1190.1699,380.3477)" id="g116">
                <path
                  d="m 0,0 h 45.806 c -7.04,-10.424 -13.416,-19.87 -19.798,-29.312 -4.374,-6.47 -8.587,-13.059 -13.214,-19.344 -2.065,-2.805 -1.695,-4.735 0.107,-7.407 10.232,-15.166 20.246,-30.478 30.451,-45.663 1.89,-2.812 2.422,-4.216 -1.884,-4.204 -27.814,0.083 -55.628,0.064 -83.442,0.094 -0.482,0.001 -0.964,0.216 -1.448,0.331 3.238,3.493 8.015,4.023 11.95,6.182 7.819,4.288 16.576,6.233 24.705,9.796 4.687,2.053 6.692,4.669 6.624,10.076 -0.303,24.487 -0.133,48.981 -0.113,73.472 C -0.254,-3.985 -0.089,-1.993 0,0"
                  style="fill:#1a1a17;fill-opacity:1;fill-rule:evenodd;stroke:none" id="path114" />
              </g>
              <g transform="translate(868.1768,577.0576)" id="g120">
                <path
                  d="m 0,0 c 4.25,5.101 8.748,10.018 12.699,15.339 9.105,12.262 14.365,26.131 16.368,41.256 0.126,0.955 0.44,1.884 1.258,2.881 6.44,-20.067 10.391,-40.552 11.46,-61.59 C 27.827,-1.995 13.857,-2.104 0,0"
                  style="fill:#262216;fill-opacity:1;fill-rule:evenodd;stroke:none" id="path118" />
              </g>
              <g transform="translate(524.0117,1311.998)" id="g124">
                <path
                  d="M 0,0 C 3.858,-2.624 8.16,-0.275 12.168,-1.084 2.074,-2.885 -8.008,-4.685 -18.07,-6.481 -12.146,-4.005 -6.294,-1.387 0,0"
                  style="fill:#bcbdc0;fill-opacity:1;fill-rule:evenodd;stroke:none" id="path122" />
              </g>
              <g transform="translate(688.2197,1217.8662)" id="g128">
                <path
                  d="m 0,0 c 26.837,-0.34 54.164,-6.592 78.308,-23.654 4.759,-3.365 9.291,-7.025 13.334,-11.242 0.874,-0.912 2.263,-1.871 1.424,-3.354 -0.639,-1.129 -2.118,-0.933 -3.211,-0.821 -8.272,0.843 -16.542,1.717 -24.798,2.708 -20.128,2.413 -40.229,1.423 -60.327,-0.379 -0.657,-0.06 -1.31,-0.233 -1.948,-0.413 -5.894,-1.67 -6.163,-2.285 -1.799,-6.848 7.246,-7.571 14.576,-15.071 22.118,-22.344 3.263,-3.147 1.793,-4.437 -1.263,-6 -11.376,-5.82 -22.977,-5.932 -34.773,-1.533 -7.957,2.968 -15.465,6.92 -23.066,10.665 -1.284,0.633 -2.513,2.31 -3.972,1.32 -1.784,-1.209 -1.226,-3.345 -0.755,-5.076 2.972,-10.911 6.671,-21.548 11.655,-31.74 6.933,-14.177 16.588,-26.464 26.344,-38.7 1.037,-1.3 1.946,-2.701 2.928,-4.045 0.607,-0.828 1.243,-1.733 0.518,-2.697 -0.825,-1.097 -1.827,-0.215 -2.68,0.1 -11.993,4.436 -22.658,11.143 -32.45,19.267 -20.004,16.595 -32.375,38.098 -39.728,62.688 -3.756,12.564 -7.061,25.262 -10.603,37.89 -1.076,3.834 -0.016,6.201 3.92,7.76 C -55.558,-6.441 -29.563,-0.047 0,0"
                  style="fill:#f3be1b;fill-opacity:1;fill-rule:evenodd;stroke:none" id="path126" />
              </g>
              <g transform="translate(987.335,838.9258)" id="g132">
                <path
                  d="m 0,0 c 8.62,-5.873 13.446,-13.276 15.729,-22.525 3.629,-14.711 3.426,-29.703 3.563,-44.687 0.043,-4.65 0.713,-9.268 1.35,-13.898 1.276,-9.273 6.231,-15.871 13.541,-21.219 4.559,-3.336 4.436,-3.711 -0.132,-6.961 -19.581,-13.931 -42.197,-10.026 -59.218,10.258 -11.137,13.273 -16.589,28.962 -19.708,45.743 -2.687,14.45 -1.024,28.51 2.835,42.459 1.027,3.71 2.653,7.187 5.096,10.212 3.107,3.846 6.249,4.091 9.623,0.411 4.08,-4.448 7.142,-9.598 9.199,-15.294 2.767,-7.658 5.435,-15.353 8.242,-22.996 0.539,-1.467 0.76,-3.82 2.543,-3.848 2.193,-0.032 1.905,2.472 2.121,3.942 1.352,9.215 2.529,18.456 3.767,27.687 C -1.007,-7.422 -0.559,-4.128 0,0"
                  style="fill:#f3be1b;fill-opacity:1;fill-rule:evenodd;stroke:none" id="path130" />
              </g>
              <g transform="translate(1007.5117,683.6904)" id="g136">
                <path
                  d="M 0,0 C -2.454,1.689 -4.907,3.379 -8.489,5.845 13.946,11.501 30.379,22.72 40.479,42.1 43.01,40.139 42.982,37.923 42.85,35.783 41.283,10.487 33.691,-12.375 16.076,-31.319 10.292,-37.54 3.921,-40.301 -4.803,-38.683 c -47.663,8.843 -86.2,46.732 -95.698,94.42 -1.503,7.543 -2.229,15.128 -2.132,22.804 0.015,1.165 -0.05,2.355 0.17,3.486 0.314,1.611 0.567,3.942 2.226,4.116 1.891,0.199 2.068,-2.214 2.579,-3.693 C -91.333,64.135 -82.08,47.495 -68.69,33.422 -52.422,16.323 -33.37,3.738 -9.878,-1.22 -6.936,-1.84 -4.031,-1.937 -1.098,-1.637 -0.731,-1.091 -0.365,-0.546 0,0"
                  style="fill:#efbc1f;fill-opacity:1;fill-rule:evenodd;stroke:none" id="path134" />
              </g>
              <g transform="translate(990.1348,890.9414)" id="g140">
                <path
                  d="m 0,0 c 0.404,3.189 2.987,4.535 5.219,6.051 19.191,13.038 40.58,21.216 62.531,28.124 23.109,7.272 46.843,11.293 70.92,13.497 0.662,0.061 1.331,0.053 1.997,0.07 9.777,0.257 11.74,-2.092 10.785,-11.729 -1.66,-16.744 -8.515,-31.686 -15.832,-46.442 -7.195,-14.511 -16.001,-28.012 -26.658,-40.263 -1.968,-2.263 -3.823,-4.61 -7.795,-4.99 6.35,23.165 9.444,46.129 -0.492,68.926 -0.307,-0.076 -0.692,-0.059 -0.776,-0.211 C 95.668,5.438 95.683,5.466 87.323,9.043 79.703,12.304 71.656,13.415 63.443,13.462 44.079,13.573 25.372,10.39 7.673,2.196 5.565,1.221 3.34,0.497 1.151,-0.296 0.913,-0.383 0.561,-0.154 0,0"
                  style="fill:#efbc1f;fill-opacity:1;fill-rule:evenodd;stroke:none" id="path138" />
              </g>
              <g transform="translate(947.0117,1076.791)" id="g144">
                <path
                  d="m 0,0 c 13.138,-0.353 13.138,-0.353 15.74,11.381 0.036,0.161 0.031,0.346 0.108,0.482 1.911,3.377 0.005,4.892 -2.926,5.616 -15.06,3.724 -28.876,0.25 -41.871,-7.512 C -31.981,8.155 -31.651,6.63 -28.274,5.475 -18.66,2.186 -8.928,-0.377 0,0 m 27.98,-32.526 c -0.243,4.283 1.66,6.487 3.413,8.618 3.42,4.158 5.798,8.928 8.267,13.63 0.937,1.783 2.756,4.12 0.828,5.913 -1.455,1.353 -3.686,0.182 -5.609,-0.505 C 28.776,-7.053 22.524,-8.605 16.09,-9.656 1.743,-12 -12.542,-9.99 -26.799,-9.243 c -22.131,1.16 -40.745,-6.122 -56.682,-21.13 -2.378,-2.239 -4.604,-4.803 -7.953,-5.572 -0.707,0.641 -0.729,1.295 -0.378,1.904 14.061,24.37 31.529,45.349 57.608,57.716 7.128,3.38 14.776,5.012 22.497,6.198 4.28,0.658 5.483,2.906 5.082,6.914 -0.923,9.215 -5.648,16.101 -12.611,21.823 -6.556,5.388 -12.942,10.981 -19.946,15.806 -1.008,0.695 -2.703,1.409 -1.933,2.991 0.856,1.761 2.365,0.506 3.479,0.081 C -19.087,70.434 -1.89,60.984 11.693,46.324 18.822,38.63 26.821,32.382 35.55,26.85 37.56,25.575 39.21,24.552 35.837,22.908 33.063,21.556 33.871,20.148 35.793,18.53 41.4,13.809 47.696,10.657 54.995,9.622 62.71,8.528 64.434,5.881 61.06,-0.964 54.014,-15.258 42.017,-24.457 27.98,-32.526"
                  style="fill:#262216;fill-opacity:1;fill-rule:evenodd;stroke:none" id="path142" />
              </g>
              <g transform="translate(1156.0898,351.6025)" id="g148">
                <path
                  d="m 0,0 v 5.534 c 0.001,36.996 -0.29,73.995 0.236,110.984 0.112,7.795 -2.459,11.089 -9.289,14.128 -66.892,29.766 -137.38,45.668 -209.616,54.735 -37.208,4.67 -74.602,6.92 -112.137,7.275 -48.398,0.46 -96.589,-2.22 -144.54,-8.587 -26.536,-3.522 -52.869,-8.338 -78.997,-14.338 -42.864,-9.842 -84.594,-22.917 -124.613,-41.306 -3.71,-1.705 -4.688,-3.754 -4.666,-7.57 0.145,-26.163 0.07,-52.327 0.068,-78.491 -10e-4,-12.831 0.047,-25.664 -0.029,-38.495 -0.019,-3.024 0.577,-4.069 3.604,-2.244 3.551,2.142 7.263,4.029 10.966,5.907 54.602,27.692 112.797,44.168 172.786,54.763 33.795,5.968 67.883,9.607 102.188,11.462 53.87,2.912 107.59,1.451 161.153,-4.745 30.58,-3.538 60.901,-8.814 90.859,-15.998 C -98.914,42.674 -57.022,28.856 -17.294,8.935 -11.708,6.134 -6.187,3.201 0,0 m 10.561,-18.866 c -12.498,7.532 -24.504,14.299 -36.913,20.312 -35.572,17.24 -72.788,29.87 -111.11,39.334 -33.792,8.346 -68.023,14.078 -102.621,18.025 -55.137,6.288 -110.369,7.153 -165.651,3.502 -60.771,-4.014 -120.569,-14.036 -178.796,-32.246 -36.899,-11.54 -72.404,-26.427 -105.499,-46.623 -3.948,-2.409 -4.432,-1.42 -4.424,2.596 0.085,47.323 0.099,94.647 -0.023,141.969 -0.009,3.731 1.283,5.596 4.577,7.17 30.203,14.439 61.535,25.824 93.678,35.056 33.12,9.513 66.781,16.649 100.809,21.874 60.902,9.351 122.211,12.777 183.789,11.044 39.814,-1.12 79.419,-4.634 118.846,-10.489 45.648,-6.778 90.5,-16.792 134.302,-31.351 22.555,-7.496 44.643,-16.163 65.975,-26.713 2.461,-1.217 3.371,-2.524 3.367,-5.258 -0.076,-48.489 -0.053,-96.979 -0.058,-145.468 0,-0.633 -0.112,-1.264 -0.248,-2.734"
                  style="fill:#eeeeee;fill-opacity:1;fill-rule:evenodd;stroke:none" id="path146" />
              </g>
              <g transform="translate(947.0117,1076.791)" id="g152">
                <path
                  d="m 0,0 c -8.928,-0.377 -18.66,2.186 -28.274,5.475 -3.377,1.155 -3.707,2.68 -0.675,4.492 12.995,7.762 26.811,11.236 41.871,7.512 2.931,-0.724 4.837,-2.239 2.926,-5.616 C 15.771,11.727 15.776,11.542 15.74,11.381 13.138,-0.353 13.138,-0.353 0,0"
                  style="fill:#efbc1f;fill-opacity:1;fill-rule:evenodd;stroke:none" id="path150" />
              </g>
              <g transform="translate(972.4893,463.124)" id="g156">
                <path
                  d="m 0,0 c 7.329,0.039 13.422,1.697 17.766,7.361 4.423,5.77 6.149,12.465 6.233,19.593 0.116,9.952 -4.676,16.698 -13.952,20.144 -8.657,3.215 -17.896,3.562 -26.792,5.567 -3.539,0.799 -4.929,0.058 -5.535,-3.773 -2.288,-14.434 -4.973,-28.806 -7.496,-43.204 -1.894,-10.802 -3.554,-21.653 -5.745,-32.396 -1.02,-4.997 2.282,-4.688 5.193,-5.538 3.641,-1.065 4.086,1.002 4.553,3.802 1.558,9.339 3.494,18.618 4.902,27.978 0.455,3.03 1.544,3.553 4.155,2.864 C -11.063,0.908 -5.245,0.524 0,0 m 166.713,-14.129 c -0.153,8.344 -0.968,13.638 -4.666,18.21 -12.722,15.724 -35.365,13.604 -46.038,-4.518 -5.842,-9.918 -10.054,-20.61 -13.236,-31.63 -1.934,-6.698 -3.095,-13.637 -1.835,-20.724 1.816,-10.204 8.613,-15.875 17.762,-19.026 8.647,-2.978 17.426,-3.137 24.049,4.199 14.38,15.93 22.002,34.93 23.964,53.489 m -298.109,75.99 c 2.337,-6.114 4.29,-12.124 6.883,-17.842 8.756,-19.296 15.168,-38.938 10.669,-60.552 -0.268,-1.286 -0.026,-2.671 -0.209,-3.984 -0.399,-2.875 0.458,-4.061 3.665,-4.261 12.237,-0.764 13.003,-0.879 12.777,11.282 -0.331,17.739 4.735,33.459 13.993,48.329 4.689,7.532 8.324,15.72 12.493,23.722 -15.794,3.834 -16.372,3.563 -22.529,-10.159 -0.273,-0.606 -0.51,-1.229 -0.787,-1.833 -2.763,-6.014 -5.532,-12.026 -8.796,-19.12 -2.726,11.082 -6.389,20.502 -9.557,30.085 -0.582,1.763 -0.611,4.26 -3.345,4.309 -4.948,0.087 -9.899,0.024 -15.257,0.024 M 73.26,-9.922 c 6.021,1.628 11.248,3.163 14.152,8.058 7.431,12.518 8.58,29.2 -11.395,35.451 -7.909,2.475 -16.105,4.021 -24.041,6.417 -4.311,1.302 -5.429,-0.559 -6.308,-4.184 -5.945,-24.518 -11.914,-49.034 -18.182,-73.471 -0.954,-3.721 -0.31,-4.983 3.286,-5.775 3.273,-0.72 5.54,-1.225 6.489,3.175 2.063,9.575 4.767,19.012 6.861,28.582 0.678,3.101 1.834,3.873 4.73,3.049 3.673,-1.046 7.437,-1.773 11.118,-2.795 9.879,-2.744 12.036,-5.744 11.512,-16.073 -0.126,-2.479 -0.604,-4.941 -0.939,-7.408 -0.669,-4.939 -2.084,-9.785 -1.841,-14.833 0.07,-1.463 -0.158,-2.978 1.971,-3.44 2.881,-0.623 5.64,-1.873 8.67,-1.617 0.191,0.015 0.538,0.894 0.438,1.272 -2.48,9.389 0.627,18.46 1.678,27.617 0.893,7.782 -0.396,11.188 -8.199,15.975 m -261.505,29.786 h 0.531 c 0,-12.826 0.169,-25.656 -0.097,-38.477 -0.085,-4.142 1.369,-4.991 5.17,-4.887 10.656,0.293 21.322,0.211 31.984,0.256 8.447,0.036 8.259,0.023 8.311,8.458 0.022,3.425 -1.143,4.193 -4.309,4.078 -6.99,-0.253 -13.995,-0.039 -20.987,-0.256 -2.82,-0.088 -3.884,0.852 -3.86,3.657 0.056,6.496 0.008,12.995 -0.171,19.49 -0.081,2.923 1.223,3.713 3.912,3.645 4.827,-0.122 9.661,0.009 14.492,0.028 8.298,0.033 8.142,0.033 8.222,8.528 0.029,3.058 -0.724,4.043 -3.86,3.902 -6.154,-0.277 -12.329,0.002 -18.487,-0.217 -3.099,-0.11 -4.612,0.603 -4.449,4.083 0.217,4.653 0.119,9.333 -0.117,13.988 -0.144,2.833 0.785,3.833 3.653,3.752 5.827,-0.164 11.662,-0.1 17.492,-0.002 9.1,0.153 7.904,-1.527 8.172,8.289 0.105,3.824 -1.274,4.834 -4.913,4.754 -11.99,-0.268 -23.988,-0.364 -35.98,-0.253 -3.69,0.034 -4.868,-1.046 -4.798,-4.833 0.234,-12.658 0.089,-25.322 0.089,-37.983 m -78.511,-28.457 c -0.521,12.77 1.235,10.145 -10.921,9.209 -0.985,-0.075 -1.944,-0.546 -2.928,-0.595 -2.197,-0.114 -2.696,-1.176 -2.549,-3.271 0.243,-3.475 0.479,-7.018 0.074,-10.455 -0.72,-6.114 -7.059,-9.203 -12.374,-6.195 -2.9,1.639 -4.241,4.515 -5.309,7.561 -2.395,6.836 -2.775,14.046 -3.536,21.114 -0.87,8.079 -3.224,16.076 -2.297,24.28 0.679,6.008 3.627,9.032 8.55,9.375 5.156,0.358 7.237,-3.228 8.858,-7.28 2.901,-7.253 2.901,-7.25 10.942,-6.047 1.317,0.197 2.637,0.454 3.962,0.506 2.02,0.081 2.556,1.11 2.267,2.949 -1.891,12.005 -7.623,25.093 -25.518,22.816 -2.465,-0.313 -4.952,-0.639 -7.351,-1.261 -11.779,-3.054 -16.877,-9.352 -17.507,-21.613 -0.784,-15.253 1.691,-30.215 4.706,-45.046 1.596,-7.854 4.448,-15.442 12.43,-19.465 18.662,-9.403 38.625,2.74 38.501,23.418 m 70.535,-14.294 c -7.503,14.033 -14.666,27.896 -22.329,41.475 -2.277,4.036 -2.074,7.067 -0.042,10.993 4.964,9.593 9.412,19.452 14.193,29.143 1.251,2.536 1.193,3.608 -2.041,3.307 -3.48,-0.323 -6.987,-0.399 -10.484,-0.466 -2.585,-0.048 -4.237,-0.961 -5.361,-3.522 -4.402,-10.029 -9.331,-19.828 -13.142,-30.114 -0.559,-1.514 -0.933,-3.06 -2.687,-4.293 -0.563,8.652 -1.209,16.899 -1.611,25.158 -0.517,10.659 -0.437,10.301 -10.733,10.415 -5.49,0.061 -6.151,-1.955 -5.78,-6.755 1.734,-22.417 3.184,-44.857 4.589,-67.298 0.82,-13.105 0.685,-13.037 13.72,-11.407 2.552,0.319 3.427,1.072 3.164,3.706 -0.527,5.3 -0.396,10.68 -1.167,15.935 -0.834,5.683 1.69,9.802 4.939,14.049 5.165,-9.79 10.217,-19.33 15.222,-28.894 0.778,-1.486 1.279,-3.244 3.401,-3.103 5.262,0.354 10.589,0.18 16.149,1.671 m -232.88,14.501 c 0.011,-1.724 -1.336,-2.211 -2.843,-2.686 -4.747,-1.495 -9.515,-2.945 -14.181,-4.665 -2.742,-1.011 -3.842,-0.218 -4.648,2.479 -1.808,6.048 -3.914,12.009 -5.927,17.995 -3.674,10.923 -3.645,10.803 -14.865,7.202 -3.31,-1.061 -4.058,-2.33 -2.909,-5.706 7.484,-21.993 14.762,-44.055 22.106,-66.095 4.008,-12.028 3.983,-11.965 15.774,-7.481 2.48,0.944 3.308,1.786 2.308,4.625 -3.583,10.169 -6.704,20.5 -10.276,30.673 -0.914,2.606 -0.328,3.58 2.068,4.312 4.922,1.504 9.867,2.976 14.675,4.8 2.867,1.089 3.63,0.186 4.451,-2.503 2.327,-7.617 5.119,-15.09 7.597,-22.664 3.748,-11.456 3.661,-11.36 15.102,-7.328 3.258,1.149 3.702,2.498 2.618,5.691 -7.523,22.148 -14.826,44.372 -22.217,66.564 -3.736,11.218 -3.753,11.212 -14.909,7.16 -0.311,-0.113 -0.621,-0.243 -0.942,-0.322 -2.534,-0.627 -3.011,-2.248 -2.207,-4.51 1.109,-3.122 2.26,-6.231 3.305,-9.375 1.986,-5.983 3.911,-11.986 5.92,-18.166 m 33.797,24.642 c -0.082,-7.537 1.311,-14.885 2.883,-22.204 2.196,-10.224 4.156,-20.538 9.155,-29.887 5.074,-9.488 10.903,-12.496 21.605,-11.331 2.476,0.27 4.955,0.639 7.39,1.163 15.72,3.39 22.448,11.994 21.059,28.031 -1.278,14.759 -4.474,29.209 -9.26,43.243 -4.816,14.119 -15.249,20.738 -28.458,18.417 -18.012,-3.163 -24.535,-10.5 -24.374,-27.432 m 578.905,-127.777 c -6.188,3.201 -11.708,6.133 -17.294,8.934 -39.729,19.922 -81.62,33.739 -124.734,44.079 -29.958,7.185 -60.278,12.46 -90.858,15.998 -53.564,6.197 -107.283,7.657 -161.153,4.745 -34.305,-1.854 -68.393,-5.494 -102.188,-11.462 -59.989,-10.594 -118.185,-27.071 -172.786,-54.762 -3.703,-1.878 -7.415,-3.766 -10.967,-5.907 -3.026,-1.826 -3.622,-0.781 -3.603,2.244 0.076,12.831 0.028,25.664 0.029,38.495 0.002,26.164 0.077,52.328 -0.068,78.491 -0.022,3.815 0.956,5.864 4.666,7.569 40.019,18.39 81.749,31.464 124.613,41.307 26.128,6 52.461,10.815 78.997,14.338 47.951,6.366 96.141,9.047 144.54,8.587 37.534,-0.356 74.929,-2.606 112.137,-7.276 72.236,-9.066 142.723,-24.968 209.616,-54.734 6.83,-3.039 9.4,-6.334 9.289,-14.129 -0.526,-36.988 -0.235,-73.987 -0.236,-110.983 z"
                  style="fill:#1c1e1e;fill-opacity:1;fill-rule:evenodd;stroke:none" id="path154" />
              </g>
              <g transform="translate(623.2021,443.8545)" id="g160">
                <path
                  d="m 0,0 c -0.594,6.819 -2.989,15.146 -4.781,23.577 -1.443,6.787 -2.296,13.749 -5.973,19.925 -2.531,4.253 -5.933,6.128 -10.802,5.188 -5.151,-0.994 -8.003,-4.196 -8.645,-9.56 -0.587,-4.905 0.585,-9.597 1.716,-14.284 2.491,-10.321 3.514,-21.011 7.27,-30.996 2.41,-6.41 6.835,-8.629 12.913,-7.441 C -2.627,-12.482 -0.005,-8.771 0,0 m -46.023,35.524 c -0.155,16.934 6.368,24.271 24.38,27.434 13.209,2.32 23.642,-4.299 28.458,-18.418 4.787,-14.033 7.982,-28.483 9.26,-43.242 1.389,-16.037 -5.339,-24.642 -21.059,-28.031 -2.435,-0.525 -4.913,-0.894 -7.39,-1.163 -10.702,-1.166 -16.531,1.842 -21.605,11.331 -4.999,9.348 -6.959,19.663 -9.155,29.886 -1.572,7.32 -2.965,14.667 -2.889,22.203"
                  style="fill:#f2f1f1;fill-opacity:1;fill-rule:evenodd;stroke:none" id="path158" />
              </g>
              <g transform="translate(543.3887,454.7383)" id="g164">
                <path
                  d="m 0,0 c -2.01,6.18 -3.935,12.183 -5.921,18.166 -1.045,3.144 -2.195,6.253 -3.305,9.375 -0.803,2.262 -0.327,3.883 2.207,4.51 0.322,0.079 0.631,0.209 0.943,0.322 11.156,4.052 11.173,4.058 14.909,-7.16 7.391,-22.192 14.693,-44.416 22.217,-66.565 1.084,-3.192 0.639,-4.542 -2.618,-5.69 -11.442,-4.032 -11.355,-4.128 -15.103,7.328 -2.477,7.573 -5.269,15.047 -7.597,22.664 -0.821,2.689 -1.584,3.592 -4.451,2.503 -4.807,-1.824 -9.753,-3.296 -14.675,-4.801 -2.395,-0.731 -2.981,-1.706 -2.067,-4.311 3.571,-10.173 6.692,-20.504 10.275,-30.673 1,-2.839 0.172,-3.682 -2.307,-4.625 -11.791,-4.484 -11.767,-4.547 -15.775,7.48 -7.343,22.04 -14.622,44.103 -22.105,66.096 -1.149,3.376 -0.401,4.645 2.908,5.706 11.221,3.601 11.192,3.721 14.865,-7.202 2.014,-5.986 4.12,-11.947 5.927,-17.995 0.807,-2.697 1.906,-3.49 4.649,-2.48 4.666,1.721 9.433,3.17 14.18,4.665 C -1.336,-2.211 0.011,-1.725 0,0"
                  style="fill:#f2f1f1;fill-opacity:1;fill-rule:evenodd;stroke:none" id="path162" />
              </g>
              <g transform="translate(776.2686,440.2373)" id="g168">
                <path
                  d="m 0,0 c -5.561,-1.491 -10.888,-1.317 -16.149,-1.671 -2.122,-0.141 -2.623,1.616 -3.401,3.103 -5.006,9.564 -10.057,19.104 -15.222,28.894 -3.249,-4.247 -5.773,-8.366 -4.939,-14.05 0.771,-5.255 0.64,-10.634 1.167,-15.934 0.263,-2.634 -0.612,-3.387 -3.164,-3.706 -13.035,-1.63 -12.9,-1.698 -13.721,11.407 -1.404,22.44 -2.854,44.881 -4.589,67.298 -0.371,4.8 0.29,6.815 5.781,6.755 10.296,-0.115 10.216,0.244 10.733,-10.415 0.401,-8.259 1.048,-16.506 1.61,-25.159 1.754,1.234 2.128,2.78 2.688,4.293 3.81,10.287 8.74,20.085 13.142,30.115 1.124,2.561 2.776,3.473 5.361,3.522 3.497,0.067 7.004,0.143 10.483,0.466 3.235,0.301 3.292,-0.772 2.041,-3.308 -4.78,-9.69 -9.228,-19.549 -14.192,-29.142 -2.032,-3.926 -2.235,-6.957 0.042,-10.993 C -14.666,27.896 -7.503,14.033 0,0"
                  style="fill:#f2f1f1;fill-opacity:1;fill-rule:evenodd;stroke:none" id="path166" />
              </g>
              <g transform="translate(705.7334,454.5312)" id="g172">
                <path
                  d="m 0,0 c 0.124,-20.678 -19.839,-32.821 -38.501,-23.418 -7.982,4.022 -10.834,11.61 -12.431,19.465 -3.014,14.831 -5.489,29.793 -4.705,45.046 0.63,12.261 5.728,18.558 17.507,21.613 2.399,0.622 4.886,0.947 7.351,1.261 17.895,2.277 23.627,-10.811 25.518,-22.817 0.289,-1.838 -0.247,-2.867 -2.267,-2.948 -1.326,-0.053 -2.645,-0.309 -3.962,-0.507 -8.041,-1.202 -8.041,-1.205 -10.943,6.048 -1.62,4.052 -3.701,7.638 -8.857,7.279 -4.923,-0.342 -7.871,-3.366 -8.55,-9.375 -0.928,-8.204 1.427,-16.201 2.297,-24.279 0.761,-7.068 1.141,-14.278 3.536,-21.114 1.068,-3.046 2.409,-5.922 5.309,-7.562 5.315,-3.007 11.654,0.081 12.374,6.196 0.405,3.437 0.169,6.98 -0.074,10.455 -0.147,2.094 0.352,3.157 2.548,3.27 0.985,0.05 1.944,0.521 2.929,0.596 C 1.234,10.145 -0.521,12.77 0,0"
                  style="fill:#f2f1f1;fill-opacity:1;fill-rule:evenodd;stroke:none" id="path170" />
              </g>
              <g transform="translate(784.2441,482.9883)" id="g176">
                <path
                  d="m 0,0 c 0,12.661 0.146,25.325 -0.089,37.982 -0.07,3.788 1.109,4.868 4.798,4.833 11.992,-0.11 23.99,-0.014 35.98,0.253 3.639,0.08 5.018,-0.929 4.914,-4.754 -0.269,-9.815 0.927,-8.135 -8.173,-8.289 -5.829,-0.097 -11.665,-0.162 -17.492,0.002 -2.868,0.081 -3.797,-0.919 -3.653,-3.752 0.236,-4.654 0.334,-9.335 0.117,-13.987 -0.163,-3.48 1.35,-4.193 4.45,-4.083 6.157,0.219 12.333,-0.06 18.486,0.217 3.136,0.141 3.89,-0.844 3.86,-3.902 -0.08,-8.496 0.076,-8.496 -8.221,-8.528 -4.831,-0.019 -9.665,-0.15 -14.493,-0.028 -2.689,0.067 -3.993,-0.722 -3.912,-3.646 0.179,-6.494 0.227,-12.993 0.171,-19.489 -0.024,-2.806 1.04,-3.745 3.861,-3.657 6.991,0.217 13.997,0.003 20.986,0.256 3.166,0.115 4.331,-0.654 4.309,-4.078 -0.052,-8.435 0.136,-8.422 -8.311,-8.458 -10.662,-0.045 -21.328,0.037 -31.984,-0.256 -3.801,-0.105 -5.255,0.745 -5.169,4.886 C 0.7,-25.656 0.531,-12.826 0.531,0 Z"
                  style="fill:#f2f1f1;fill-opacity:1;fill-rule:evenodd;stroke:none" id="path174" />
              </g>
              <g transform="translate(1054.4053,477.9971)" id="g180">
                <path
                  d="m 0,0 c -0.183,3.562 -2.165,7.106 -6.405,9.35 -5.83,3.085 -12.36,3.742 -18.58,5.463 -2.246,0.623 -2.803,-0.911 -3.232,-2.725 -1.106,-4.691 -2.296,-9.363 -3.535,-14.021 -3.236,-12.157 -3.255,-12.154 8.703,-15.261 0.964,-0.25 1.93,-0.509 2.909,-0.686 C -6.97,-20.263 -0.063,-14.511 0,0 m -8.656,-24.795 c 7.802,-4.787 9.092,-8.193 8.199,-15.976 -1.051,-9.156 -4.158,-18.227 -1.678,-27.616 0.1,-0.378 -0.247,-1.257 -0.438,-1.272 -3.03,-0.256 -5.789,0.994 -8.67,1.617 -2.129,0.462 -1.901,1.977 -1.971,3.439 -0.243,5.049 1.172,9.895 1.841,14.833 0.335,2.468 0.813,4.93 0.939,7.409 0.524,10.329 -1.633,13.329 -11.512,16.073 -3.681,1.022 -7.445,1.749 -11.118,2.795 -2.896,0.824 -4.052,0.052 -4.73,-3.049 -2.094,-9.57 -4.798,-19.007 -6.861,-28.582 -0.949,-4.4 -3.216,-3.895 -6.489,-3.175 -3.596,0.792 -4.24,2.054 -3.286,5.775 6.268,24.437 12.237,48.953 18.182,73.471 0.879,3.625 1.997,5.486 6.308,4.184 7.936,-2.396 16.132,-3.943 24.041,-6.417 19.975,-6.251 18.826,-22.933 11.395,-35.451 -2.904,-4.895 -8.131,-6.43 -14.152,-8.058"
                  style="fill:#eeeeee;fill-opacity:1;fill-rule:evenodd;stroke:none" id="path178" />
              </g>
              <g transform="translate(841.0928,524.9854)" id="g184">
                <path
                  d="m 0,0 c 5.358,0 10.31,0.062 15.258,-0.024 2.733,-0.049 2.763,-2.546 3.345,-4.309 3.168,-9.583 6.831,-19.003 9.556,-30.085 3.265,7.094 6.033,13.106 8.796,19.119 0.277,0.605 0.515,1.228 0.787,1.834 6.157,13.722 6.736,13.992 22.529,10.158 -4.168,-8.002 -7.803,-16.189 -12.493,-23.721 -9.257,-14.87 -14.324,-30.59 -13.993,-48.329 0.227,-12.162 -0.54,-12.046 -12.776,-11.283 -3.207,0.201 -4.065,1.387 -3.665,4.262 0.182,1.313 -0.06,2.697 0.209,3.983 C 22.052,-56.78 15.64,-37.139 6.884,-17.843 4.29,-12.124 2.338,-6.114 0,0"
                  style="fill:#f2f1f1;fill-opacity:1;fill-rule:evenodd;stroke:none" id="path182" />
              </g>
              <g transform="translate(1129.0391,447.3096)" id="g188">
                <path
                  d="m 0,0 c 0.107,12.028 -3.419,17.681 -10.922,20.326 -6.932,2.444 -12.799,0.832 -17.872,-5.991 -9.784,-13.157 -15.4,-28.207 -17.807,-44.302 -1.268,-8.482 2.513,-14.156 9.702,-17.25 7.212,-3.104 13.353,-1.529 19.292,4.679 3.658,3.824 5.605,8.598 7.694,13.261 C -5.313,-19.007 -0.414,-8.796 0,0 m 10.163,1.686 c -1.962,-18.559 -9.584,-37.56 -23.964,-53.49 -6.623,-7.336 -15.402,-7.176 -24.049,-4.199 -9.149,3.151 -15.946,8.822 -17.761,19.026 -1.261,7.087 -0.1,14.027 1.835,20.724 3.181,11.021 7.393,21.712 13.235,31.63 10.673,18.122 33.316,20.242 46.038,4.519 3.698,-4.573 4.513,-9.867 4.666,-18.21"
                  style="fill:#eeeeee;fill-opacity:1;fill-rule:evenodd;stroke:none" id="path186" />
              </g>
              <g transform="translate(969.5781,472.2695)" id="g192">
                <path
                  d="m 0,0 c 9.86,-0.198 14.813,3.977 16.272,12.646 1.658,9.846 -1.289,15.776 -9.45,18.116 -4.61,1.322 -9.394,2.056 -14.118,2.957 -1.657,0.316 -3.167,0.458 -3.55,-2.081 -1.312,-8.69 -2.775,-17.36 -4.359,-26.004 C -15.716,2.85 -14.32,1.998 -12.102,1.67 -7.668,1.015 -3.223,0.441 0,0 m 2.911,-9.146 c -5.245,0.525 -11.062,0.909 -16.718,2.399 -2.611,0.688 -3.7,0.166 -4.155,-2.864 -1.408,-9.361 -3.344,-18.64 -4.902,-27.979 -0.467,-2.8 -0.911,-4.866 -4.553,-3.802 -2.911,0.851 -6.213,0.541 -5.193,5.538 2.191,10.744 3.851,21.594 5.745,32.397 2.523,14.397 5.208,28.769 7.496,43.203 0.606,3.831 1.996,4.572 5.535,3.774 C -4.937,41.515 4.301,41.167 12.958,37.952 22.234,34.507 27.026,27.761 26.91,17.809 26.826,10.681 25.101,3.985 20.677,-1.784 16.333,-7.448 10.24,-9.106 2.911,-9.146"
                  style="fill:#eeeeee;fill-opacity:1;fill-rule:evenodd;stroke:none" id="path190" />
              </g>
              <g transform="translate(623.2021,443.8545)" id="g196">
                <path
                  d="m 0,0 c -0.005,-8.771 -2.627,-12.482 -8.302,-13.591 -6.078,-1.188 -10.503,1.031 -12.913,7.441 -3.756,9.985 -4.779,20.675 -7.27,30.996 -1.131,4.687 -2.303,9.379 -1.716,14.284 0.642,5.364 3.494,8.566 8.645,9.56 4.869,0.94 8.271,-0.935 10.802,-5.188 3.677,-6.176 4.53,-13.138 5.973,-19.925 C -2.989,15.146 -0.594,6.819 0,0"
                  style="fill:#1c1e1e;fill-opacity:1;fill-rule:evenodd;stroke:none" id="path194" />
              </g>
              <g transform="translate(1054.4053,477.9971)" id="g200">
                <path
                  d="m 0,0 c -0.063,-14.511 -6.97,-20.263 -20.14,-17.88 -0.979,0.177 -1.945,0.436 -2.909,0.686 -11.958,3.107 -11.939,3.104 -8.703,15.261 1.239,4.658 2.429,9.33 3.535,14.021 0.429,1.814 0.986,3.348 3.232,2.725 6.22,-1.721 12.75,-2.378 18.58,-5.463 C -2.165,7.106 -0.183,3.562 0,0"
                  style="fill:#1c1e1e;fill-opacity:1;fill-rule:evenodd;stroke:none" id="path198" />
              </g>
              <g transform="translate(1129.0391,447.3096)" id="g204">
                <path
                  d="m 0,0 c -0.414,-8.796 -5.313,-19.007 -9.913,-29.277 -2.089,-4.663 -4.036,-9.437 -7.694,-13.261 -5.939,-6.208 -12.08,-7.783 -19.292,-4.679 -7.189,3.094 -10.97,8.768 -9.702,17.25 2.407,16.095 8.023,31.145 17.807,44.302 5.073,6.823 10.94,8.435 17.872,5.991 C -3.419,17.681 0.107,12.028 0,0"
                  style="fill:#1c1e1e;fill-opacity:1;fill-rule:evenodd;stroke:none" id="path202" />
              </g>
              <g transform="translate(969.5781,472.2695)" id="g208">
                <path
                  d="m 0,0 c -3.223,0.441 -7.668,1.015 -12.102,1.67 -2.218,0.328 -3.614,1.18 -3.103,3.964 1.584,8.644 3.047,17.314 4.359,26.004 0.383,2.539 1.893,2.397 3.55,2.081 4.724,-0.901 9.508,-1.635 14.118,-2.957 8.161,-2.34 11.108,-8.27 9.45,-18.116 C 14.813,3.977 9.86,-0.198 0,0"
                  style="fill:#1c1e1e;fill-opacity:1;fill-rule:evenodd;stroke:none" id="path206" />
              </g>
            </g>
          </g>
        </g>
      </g>
    </g>
  </g>
</svg>