<?xml version="1.0" encoding="utf-8"?>
<!-- Generator: Adobe Illustrator 25.4.1, SVG Export Plug-In . SVG Version: 6.00 Build 0)  -->
<svg version="1.1" id="Layer_1" xmlns="http://www.w3.org/2000/svg" xmlns:xlink="http://www.w3.org/1999/xlink" x="0px" y="0px"
	 viewBox="0 0 400 55.9" style="enable-background:new 0 0 400 55.9;" xml:space="preserve">
<style type="text/css">
	.st0{fill:#131415;}
</style>
<g id="Layer_2_00000116198571108623797870000012534811411520181671_">
	<g id="Layer_1-2">
		<path class="st0" d="M277.6,16.5l-15.8,32.9c-1.6,3.4-4.9,5.3-9.2,5.3h-38.3c-4.4,0-5.7-3.4-4.1-6.9l15-31.4h13.3l-13.8,28.8
			c-0.4,0.8,0,1.2,0.8,1.2h23c1,0.1,1.9-0.4,2.3-1.4l13.8-28.7L277.6,16.5z"/>
		<path class="st0" d="M331.5,16.5h-36.8c-4.7,0-7.4,2-9.3,6l-11.9,24.8c-2.1,4.2,0,7.4,4.4,7.4h37.3c4.3,0,7.6-1.8,9.4-5.6l1.2-2.3
			h-37.5c-0.8,0-1.1-0.5-0.7-1.3l2.2-4.6c0.3-0.9,1.2-1.5,2.2-1.4h30.8c4.8,0,7.6-2.2,9-5l4.8-10c0.6-1.2,0.9-2.4,0.9-3.7
			C337.4,18.1,335.1,16.5,331.5,16.5 M323.6,25.6l-2.4,4.9c-0.3,0.8-1.2,1.3-2.1,1.2h-24.9l2.9-6.1c0.3-0.9,1.2-1.4,2.2-1.3h23.4
			c0.5-0.1,0.9,0.2,0.9,0.7C323.7,25.2,323.7,25.4,323.6,25.6"/>
		<path class="st0" d="M385.9,25.6l-2.5,5.1c-0.3,0.9-1.2,1.4-2.2,1.3h-25.4l3-6.3c0.4-0.9,1.3-1.5,2.3-1.4h23.9
			c0.4-0.1,0.9,0.2,0.9,0.7C386.1,25.3,386,25.5,385.9,25.6 M399,24.6c0.6-1.1,0.9-2.4,1-3.7c0-2.8-2.4-4.4-5.9-4.4h-37.6
			c-4.7,0-7.4,2-9.3,6l-15.5,32.3h13.1l6.5-13.5c0.3-0.9,1.2-1.5,2.2-1.4h16.4c0.9-0.1,1.7,0.4,2,1.3l5.3,13.6h12.7l-6-15.2l0.9-0.1
			c5-0.4,8.2-2.5,10-6.1L399,24.6z"/>
		<path class="st0" d="M205.8,16.5h-38c-4.1,0-7,1.7-8.8,5.5l-1.2,2.5h38.3c1,0,1.2,0.6,0.9,1.3l-2,4.2c-0.3,0.9-1.2,1.5-2.2,1.4
			h-32.7c-3.5-0.1-6.6,1.9-8.1,5l-5.4,11.2c-1.9,4,0,7.3,4.3,7.3h38.7c4.2,0,7.5-1.9,9.2-5.3l11.9-24.9c0.6-1.2,0.9-2.4,0.9-3.7
			C211.7,18.1,209.4,16.6,205.8,16.5 M187.5,45.6c-0.3,0.8-1.2,1.4-2.1,1.3h-24.2c-0.6,0-1.1-0.4-0.7-1.3l2.5-5.3
			c0.4-0.9,1.2-1.4,2.2-1.3h25.4L187.5,45.6z"/>
		<path class="st0" d="M143.2,16.5h-39.5c-3.6-0.2-7,1.8-8.5,5.1L79.2,54.8h48.2c4.7,0,7.6-2,9.2-5.2l3.3-6.8c0.6-1,0.9-2.1,0.9-3.3
			c0-2.4-1.8-3.9-4.3-4.4c0.9-0.1,1.8-0.2,2.8-0.4c2.9-0.6,5.3-2.5,6.5-5.1l2.4-5c0.6-1.2,0.9-2.4,0.9-3.7
			C149.1,18.1,146.8,16.5,143.2,16.5 M125.2,45.5c-0.3,0.9-1.2,1.4-2.2,1.3H97.6c-0.8,0-1-0.6-0.8-1.2l2.6-5.4
			c0.4-0.9,1.2-1.4,2.2-1.3h26.8L125.2,45.5z M134.9,25.4l-2.1,4.4c-0.3,0.9-1.2,1.4-2.2,1.3h-26.8l2.7-5.7c0.4-0.8,1.2-1.4,2.1-1.3
			H134C135,24.1,135.2,24.8,134.9,25.4"/>
		<path class="st0" d="M69.4,19.8c-0.2-0.6-0.5-1.2-0.8-1.7c-0.3-0.5-0.7-0.9-1.2-1.3l-0.1-0.1l-0.1,0l-0.1-0.1
			c-0.7-0.5-1.5-0.9-2.3-1.1c-1.3-0.4-2.6-0.6-4-0.5c-2.1,0.2-4.1,0.6-6,1.3c-1.7,0.6-3.4,1.3-5.1,2.1c-3.1,1.6-6.2,3.3-9.2,5.2
			c-0.7,0.4-1.4,0.9-2.1,1.4l-1.8-3.2l-4.8-9c-1.6-3-3.2-6-4.9-8.9L27,3.7c-2.1-3.7-6.7-5-10.4-2.9s-5,6.7-2.9,10.4
			c0.1,0.1,0.1,0.2,0.2,0.4c1.8,2.9,3.7,5.7,5.6,8.6l5.6,8.5l2.5,3.8C18.1,39.5,8.9,47,0,54.8c0,0,0,0.1,0,0.1c0,0,0.1,0,0.1,0
			c0,0,0,0,0,0c5.6-3.8,11.3-7.5,17-11.1c4.3-2.7,8.5-5.2,12.8-7.8l6.4,9.6l2.8,4.3l1.5,2.1l0.4,0.5l0.1,0.1l0.1,0.2l0.2,0.3
			c0.1,0.2,0.3,0.4,0.5,0.6s0.4,0.4,0.6,0.6c0.9,0.8,2,1.3,3.2,1.5c0.9,0.2,1.8,0.2,2.7,0c1-0.2,1.9-0.6,2.8-1.2
			c0.6-0.4,1.1-0.7,1.6-1.2c0.8-0.7,1.6-1.4,2.3-2.2c1.3-1.4,2.5-2.9,3.6-4.4c2.1-2.9,4-6,5.7-9.2c0.9-1.6,1.7-3.2,2.4-4.9
			c0.8-1.7,1.4-3.5,2-5.3c0.3-1,0.5-2.1,0.7-3.1c0.1-0.6,0.1-1.3,0.2-1.9C69.8,21.5,69.6,20.6,69.4,19.8 M60.3,24.5
			c-0.5,1.4-1.2,2.8-1.8,4.1c-0.7,1.4-1.5,2.8-2.3,4.1c-1.7,2.7-3.5,5.3-5.5,7.8c-0.8,0.9-1.5,1.8-2.3,2.6l-1.9-3.5l-5.2-9.7
			l2.3-1.1c2.9-1.5,5.9-2.8,9-3.9c1.5-0.5,3-1,4.5-1.4c1.2-0.3,2.4-0.5,3.6-0.5c0.1,0,0.1,0.1,0.1,0.1c0,0,0,0,0,0
			C60.6,23.6,60.4,24,60.3,24.5"/>
	</g>
</g>
</svg>